<?xml version="1.0" encoding="UTF-8"?>
<!DOCTYPE svg PUBLIC "-//W3C//DTD SVG 1.1//EN" "http://www.w3.org/Graphics/SVG/1.1/DTD/svg11.dtd">
<svg xmlns="http://www.w3.org/2000/svg" version="1.1" width="483px" height="330px" style="shape-rendering:geometricPrecision; text-rendering:geometricPrecision; image-rendering:optimizeQuality; fill-rule:evenodd; clip-rule:evenodd" xmlns:xlink="http://www.w3.org/1999/xlink">
<g><path style="opacity:1" fill="#a8c8fb" d="M 267.5,17.5 C 273.74,19.4488 280.073,21.1155 286.5,22.5C 287.522,23.354 288.355,24.354 289,25.5C 289.827,39.3396 289.661,53.0062 288.5,66.5C 288.815,52.7841 288.482,39.1174 287.5,25.5C 286.5,24.8333 285.5,24.1667 284.5,23.5C 278.531,22.4696 272.531,21.6363 266.5,21C 265.181,19.3721 263.848,19.5387 262.5,21.5C 261.808,20.9747 261.308,20.3081 261,19.5C 259.887,20.7111 258.72,20.7111 257.5,19.5C 255.404,20.6197 255.07,22.1197 256.5,24C 253.123,25.0394 252.457,26.5394 254.5,28.5C 252.206,30.82 252.206,32.9867 254.5,35C 253.971,36.5589 253.304,38.0589 252.5,39.5C 253.711,40.7202 253.711,41.8869 252.5,43C 255.028,44.3159 255.028,45.4826 252.5,46.5C 253.641,47.4255 253.641,48.2588 252.5,49C 253.167,49.3333 253.833,49.6667 254.5,50C 251.936,51.8508 251.936,53.6841 254.5,55.5C 252.988,56.8625 251.488,57.1958 250,56.5C 249.833,57 249.667,57.5 249.5,58C 250.615,59.2349 250.615,60.4016 249.5,61.5C 250.376,62.2508 251.376,62.7508 252.5,63C 250.956,63.2896 249.623,63.9563 248.5,65C 249.167,65.3333 249.833,65.6667 250.5,66C 247.184,67.2512 246.85,68.9179 249.5,71C 248.833,71.3333 248.167,71.6667 247.5,72C 248.337,73.0113 248.67,74.1779 248.5,75.5C 251.888,74.835 252.888,75.835 251.5,78.5C 252.277,80.4466 253.277,82.2799 254.5,84C 253.622,85.5547 253.622,87.2214 254.5,89C 253.761,91.2539 252.761,93.4205 251.5,95.5C 248.745,96.631 246.411,98.2976 244.5,100.5C 244.938,101.506 245.604,101.506 246.5,100.5C 247.711,101.274 247.711,102.107 246.5,103C 248.5,104.333 250.5,105.667 252.5,107C 251.289,107.893 251.289,108.726 252.5,109.5C 253.736,110.246 255.07,110.579 256.5,110.5C 256.5,111.5 256.5,112.5 256.5,113.5C 259.463,113.953 261.796,115.453 263.5,118C 267.422,119.798 271.422,121.298 275.5,122.5C 275.5,123.167 275.5,123.833 275.5,124.5C 274.533,125.806 273.199,126.473 271.5,126.5C 271.762,125.022 271.429,123.689 270.5,122.5C 265.572,120.085 260.572,118.085 255.5,116.5C 255.5,115.5 255.5,114.5 255.5,113.5C 243.954,110.483 233.954,104.649 225.5,96C 226.34,94.3335 225.84,94.1669 224,95.5C 222.105,93.5652 222.438,91.8985 225,90.5C 226.74,91.7158 227.74,93.3825 228,95.5C 229.837,95.3346 231.837,94.668 234,93.5C 234.833,94.5 235.667,95.5 236.5,96.5C 237.696,96.1543 237.696,95.6543 236.5,95C 240.833,94.6667 245.167,94.3333 249.5,94C 251.931,90.9219 252.931,87.4219 252.5,83.5C 251.07,83.5792 249.736,83.2458 248.5,82.5C 245.773,79.7675 242.773,77.4342 239.5,75.5C 233.976,73.1627 228.976,69.8294 224.5,65.5C 223.264,64.7542 221.93,64.4208 220.5,64.5C 219.247,59.4011 216.247,55.5678 211.5,53C 211.957,52.586 212.291,52.086 212.5,51.5C 210.135,50.9149 208.135,49.7482 206.5,48C 207.727,46.4126 207.394,45.0793 205.5,44C 206.715,41.9045 207.549,42.0712 208,44.5C 208.684,43.2161 208.517,42.0495 207.5,41C 208.167,40.6667 208.833,40.3333 209.5,40C 209.943,38.4815 209.276,37.3148 207.5,36.5C 210.118,34.8004 210.784,32.6337 209.5,30C 210.5,29 211.5,28 212.5,27C 211.572,26.6121 210.905,25.9454 210.5,25C 212.003,23.0786 212.669,20.912 212.5,18.5C 221.227,17.2604 230.06,15.9271 239,14.5C 248.351,15.9425 257.851,16.9425 267.5,17.5 Z"/></g>
<g><path style="opacity:1" fill="#b6d2fe" d="M 288.5,66.5 C 286.679,85.9747 282.345,104.641 275.5,122.5C 271.422,121.298 267.422,119.798 263.5,118C 261.796,115.453 259.463,113.953 256.5,113.5C 256.5,112.5 256.5,111.5 256.5,110.5C 255.07,110.579 253.736,110.246 252.5,109.5C 251.289,108.726 251.289,107.893 252.5,107C 250.5,105.667 248.5,104.333 246.5,103C 247.711,102.107 247.711,101.274 246.5,100.5C 245.604,101.506 244.938,101.506 244.5,100.5C 246.411,98.2976 248.745,96.631 251.5,95.5C 252.761,93.4205 253.761,91.2539 254.5,89C 253.622,87.2214 253.622,85.5547 254.5,84C 253.277,82.2799 252.277,80.4466 251.5,78.5C 252.888,75.835 251.888,74.835 248.5,75.5C 248.67,74.1779 248.337,73.0113 247.5,72C 248.167,71.6667 248.833,71.3333 249.5,71C 246.85,68.9179 247.184,67.2512 250.5,66C 249.833,65.6667 249.167,65.3333 248.5,65C 249.623,63.9563 250.956,63.2896 252.5,63C 251.376,62.7508 250.376,62.2508 249.5,61.5C 250.615,60.4016 250.615,59.2349 249.5,58C 249.667,57.5 249.833,57 250,56.5C 251.488,57.1958 252.988,56.8625 254.5,55.5C 251.936,53.6841 251.936,51.8508 254.5,50C 253.833,49.6667 253.167,49.3333 252.5,49C 253.641,48.2588 253.641,47.4255 252.5,46.5C 255.028,45.4826 255.028,44.3159 252.5,43C 253.711,41.8869 253.711,40.7202 252.5,39.5C 253.304,38.0589 253.971,36.5589 254.5,35C 252.206,32.9867 252.206,30.82 254.5,28.5C 252.457,26.5394 253.123,25.0394 256.5,24C 255.07,22.1197 255.404,20.6197 257.5,19.5C 258.72,20.7111 259.887,20.7111 261,19.5C 261.308,20.3081 261.808,20.9747 262.5,21.5C 263.848,19.5387 265.181,19.3721 266.5,21C 272.531,21.6363 278.531,22.4696 284.5,23.5C 285.5,24.1667 286.5,24.8333 287.5,25.5C 288.482,39.1174 288.815,52.7841 288.5,66.5 Z"/></g>
<g><path style="opacity:1" fill="#83aef3" d="M 377.5,102.5 C 377.414,103.496 377.748,104.329 378.5,105C 377.833,105.333 377.167,105.667 376.5,106C 379.468,108.584 379.135,110.584 375.5,112C 376.833,112.667 376.833,113.333 375.5,114C 377.384,114.216 379.051,114.883 380.5,116C 379.464,117.617 378.297,117.784 377,116.5C 376.506,118.134 376.34,119.801 376.5,121.5C 374.799,121.966 373.299,121.966 372,121.5C 369.415,121.963 367.248,123.13 365.5,125C 362.574,125.218 359.74,125.718 357,126.5C 355.387,125.378 354.22,125.878 353.5,128C 355.693,127.43 357.693,127.764 359.5,129C 358.584,129.374 357.75,129.874 357,130.5C 355,129.167 353,129.167 351,130.5C 349.42,127.746 348.254,127.912 347.5,131C 348.71,132.868 348.21,134.368 346,135.5C 346.351,133.114 346.185,130.781 345.5,128.5C 342.467,129.927 339.634,129.594 337,127.5C 335.846,128.743 334.512,129.743 333,130.5C 332.383,129.551 332.549,128.718 333.5,128C 332.584,127.626 331.75,127.126 331,126.5C 328.466,130.128 325.466,130.461 322,127.5C 319.348,129.307 316.681,130.307 314,130.5C 313.641,127.456 312.974,127.122 312,129.5C 311.259,128.359 310.425,128.359 309.5,129.5C 308.5,128.167 307.5,126.833 306.5,125.5C 305.719,126.729 305.219,128.062 305,129.5C 304.333,126.833 303.667,126.833 303,129.5C 302.667,128.833 302.333,128.167 302,127.5C 299.821,129.637 297.321,129.971 294.5,128.5C 296.27,127.18 296.603,125.68 295.5,124C 294.369,124.108 293.369,124.608 292.5,125.5C 290.109,124.809 290.109,123.809 292.5,122.5C 291.218,119.867 289.884,119.867 288.5,122.5C 287.363,119.072 285.029,117.572 281.5,118C 282.126,118.75 282.626,119.584 283,120.5C 284.281,119.353 284.614,119.687 284,121.5C 282.119,123.825 280.452,123.825 279,121.5C 277.826,122.544 276.659,123.544 275.5,124.5C 275.5,123.833 275.5,123.167 275.5,122.5C 282.345,104.641 286.679,85.9747 288.5,66.5C 289.661,53.0062 289.827,39.3396 289,25.5C 288.355,24.354 287.522,23.354 286.5,22.5C 280.073,21.1155 273.74,19.4488 267.5,17.5C 266.737,16.7321 265.737,16.2321 264.5,16C 254.398,14.3661 244.231,13.1995 234,12.5C 224.18,13.2128 214.347,13.7128 204.5,14C 198.956,17.0359 193.289,19.8692 187.5,22.5C 185.974,25.1908 184.64,27.8575 183.5,30.5C 181.799,30.9662 180.299,30.9662 179,30.5C 178.46,32.1346 178.96,33.4679 180.5,34.5C 179.617,36.4798 179.783,38.4798 181,40.5C 181.92,40.9302 182.753,41.2635 183.5,41.5C 183.291,42.086 182.957,42.586 182.5,43C 187.573,47.0784 192.907,50.7451 198.5,54C 201.816,54.663 204.649,56.163 207,58.5C 207.333,58.1667 207.667,57.8333 208,57.5C 210.849,62.1821 215.016,64.5155 220.5,64.5C 221.93,64.4208 223.264,64.7542 224.5,65.5C 228.976,69.8294 233.976,73.1627 239.5,75.5C 241.321,78.4833 243.321,81.3166 245.5,84C 245,84.1667 244.5,84.3333 244,84.5C 240.059,82.1836 236.225,79.6836 232.5,77C 225.569,77.0888 219.903,74.5888 215.5,69.5C 215.167,69.5 214.833,69.5 214.5,69.5C 214.158,68.6618 213.492,68.3284 212.5,68.5C 186.874,54.2255 159.374,48.8922 130,52.5C 127.833,52.1667 125.667,51.8333 123.5,51.5C 153.762,21.728 190.429,6.72796 233.5,6.5C 300.329,10.5611 348.329,42.5611 377.5,102.5 Z"/></g>
<g><path style="opacity:1" fill="#96bcf9" d="M 267.5,17.5 C 257.851,16.9425 248.351,15.9425 239,14.5C 230.06,15.9271 221.227,17.2604 212.5,18.5C 212.669,20.912 212.003,23.0786 210.5,25C 210.905,25.9454 211.572,26.6121 212.5,27C 211.5,28 210.5,29 209.5,30C 210.784,32.6337 210.118,34.8004 207.5,36.5C 209.276,37.3148 209.943,38.4815 209.5,40C 208.833,40.3333 208.167,40.6667 207.5,41C 208.517,42.0495 208.684,43.2161 208,44.5C 207.549,42.0712 206.715,41.9045 205.5,44C 207.394,45.0793 207.727,46.4126 206.5,48C 208.135,49.7482 210.135,50.9149 212.5,51.5C 212.291,52.086 211.957,52.586 211.5,53C 216.247,55.5678 219.247,59.4011 220.5,64.5C 215.016,64.5155 210.849,62.1821 208,57.5C 207.667,57.8333 207.333,58.1667 207,58.5C 204.649,56.163 201.816,54.663 198.5,54C 192.907,50.7451 187.573,47.0784 182.5,43C 182.957,42.586 183.291,42.086 183.5,41.5C 182.753,41.2635 181.92,40.9302 181,40.5C 179.783,38.4798 179.617,36.4798 180.5,34.5C 178.96,33.4679 178.46,32.1346 179,30.5C 180.299,30.9662 181.799,30.9662 183.5,30.5C 184.64,27.8575 185.974,25.1908 187.5,22.5C 193.289,19.8692 198.956,17.0359 204.5,14C 214.347,13.7128 224.18,13.2128 234,12.5C 244.231,13.1995 254.398,14.3661 264.5,16C 265.737,16.2321 266.737,16.7321 267.5,17.5 Z"/></g>
<g><path style="opacity:0.312" fill="#a4bff7" d="M 200.5,65.5 C 201.842,66.793 203.509,67.6264 205.5,68C 204.667,68.1667 203.833,68.3333 203,68.5C 194.432,65.2188 185.598,62.8854 176.5,61.5C 151.517,59.109 127.517,62.7756 104.5,72.5C 103.817,72.1373 103.15,71.8039 102.5,71.5C 132.39,58.4114 163.39,55.4114 195.5,62.5C 197.693,62.7705 199.359,63.7705 200.5,65.5 Z"/></g>
<g><path style="opacity:1" fill="#83aef7" d="M 141.5,91.5 C 140.848,90.2749 139.681,89.6083 138,89.5C 134.845,90.2781 131.678,90.4448 128.5,90C 124.65,86.5415 125.65,84.7082 131.5,84.5C 132.354,83.4783 133.354,82.6449 134.5,82C 134.167,81.6667 133.833,81.3333 133.5,81C 136.833,80.3333 140.167,80.3333 143.5,81C 145.017,82.7785 145.851,82.2785 146,79.5C 146.637,81.3031 147.803,82.6364 149.5,83.5C 150.506,83.0623 150.506,82.3957 149.5,81.5C 151.353,80.2404 153.186,80.2404 155,81.5C 155.626,79.0087 156.459,79.0087 157.5,81.5C 158.876,80.1581 160.209,78.8248 161.5,77.5C 161.192,76.6919 160.692,76.0253 160,75.5C 158.663,76.7649 157.163,77.2649 155.5,77C 155.596,73.3354 156.596,69.6687 158.5,66C 158.167,65.6667 157.833,65.3333 157.5,65C 160.792,64.0643 163.792,64.5643 166.5,66.5C 166.833,65.8333 167.167,65.1667 167.5,64.5C 168.086,64.7093 168.586,65.0426 169,65.5C 171.069,64.7362 173.236,64.2362 175.5,64C 176.252,63.3292 176.586,62.4959 176.5,61.5C 185.598,62.8854 194.432,65.2188 203,68.5C 203.833,68.3333 204.667,68.1667 205.5,68C 203.509,67.6264 201.842,66.793 200.5,65.5C 204.615,66.0949 208.615,67.0949 212.5,68.5C 212.5,68.8333 212.5,69.1667 212.5,69.5C 212.082,70.2216 211.416,70.7216 210.5,71C 210.833,71.3333 211.167,71.6667 211.5,72C 217.333,74.4905 223,77.1572 228.5,80C 230.037,81.1096 230.703,82.6096 230.5,84.5C 234.23,84.8541 237.563,86.1874 240.5,88.5C 239.277,89.6139 237.944,89.7805 236.5,89C 228.68,85.1663 220.68,81.833 212.5,79C 208.628,75.2158 203.962,73.0491 198.5,72.5C 195.97,72.3062 193.47,72.9728 191,74.5C 187.843,71.8748 185.009,72.3748 182.5,76C 180.833,76.3333 179.167,76.6667 177.5,77C 182.448,77.2259 186.448,79.2259 189.5,83C 193.412,85.7877 197.746,87.7877 202.5,89C 205.682,92.3493 209.015,95.516 212.5,98.5C 216.421,99.2526 219.755,101.086 222.5,104C 224.167,104.333 225.833,104.667 227.5,105C 228.5,106.667 229.833,108 231.5,109C 236.217,111.353 241.051,113.52 246,115.5C 248.137,116.077 250.304,116.41 252.5,116.5C 252.5,117.5 252.5,118.5 252.5,119.5C 253.873,119.343 255.207,119.51 256.5,120C 260.63,122.15 264.63,124.483 268.5,127C 270.81,127.497 273.143,127.663 275.5,127.5C 275.5,126.5 275.5,125.5 275.5,124.5C 276.659,123.544 277.826,122.544 279,121.5C 280.452,123.825 282.119,123.825 284,121.5C 284.614,119.687 284.281,119.353 283,120.5C 282.626,119.584 282.126,118.75 281.5,118C 285.029,117.572 287.363,119.072 288.5,122.5C 289.884,119.867 291.218,119.867 292.5,122.5C 290.109,123.809 290.109,124.809 292.5,125.5C 293.369,124.608 294.369,124.108 295.5,124C 296.603,125.68 296.27,127.18 294.5,128.5C 297.321,129.971 299.821,129.637 302,127.5C 302.333,128.167 302.667,128.833 303,129.5C 303.667,126.833 304.333,126.833 305,129.5C 305.219,128.062 305.719,126.729 306.5,125.5C 307.5,126.833 308.5,128.167 309.5,129.5C 310.425,128.359 311.259,128.359 312,129.5C 312.974,127.122 313.641,127.456 314,130.5C 316.681,130.307 319.348,129.307 322,127.5C 325.466,130.461 328.466,130.128 331,126.5C 331.75,127.126 332.584,127.626 333.5,128C 332.549,128.718 332.383,129.551 333,130.5C 334.512,129.743 335.846,128.743 337,127.5C 339.634,129.594 342.467,129.927 345.5,128.5C 346.185,130.781 346.351,133.114 346,135.5C 348.21,134.368 348.71,132.868 347.5,131C 348.254,127.912 349.42,127.746 351,130.5C 353,129.167 355,129.167 357,130.5C 357.75,129.874 358.584,129.374 359.5,129C 357.693,127.764 355.693,127.43 353.5,128C 354.22,125.878 355.387,125.378 357,126.5C 359.74,125.718 362.574,125.218 365.5,125C 367.248,123.13 369.415,121.963 372,121.5C 373.299,121.966 374.799,121.966 376.5,121.5C 376.34,119.801 376.506,118.134 377,116.5C 378.297,117.784 379.464,117.617 380.5,116C 379.051,114.883 377.384,114.216 375.5,114C 376.833,113.333 376.833,112.667 375.5,112C 379.135,110.584 379.468,108.584 376.5,106C 377.167,105.667 377.833,105.333 378.5,105C 377.748,104.329 377.414,103.496 377.5,102.5C 383.383,101.727 388.716,99.5599 393.5,96C 403.773,90.0332 413.107,82.8665 421.5,74.5C 420.135,73.059 418.635,71.7256 417,70.5C 416.383,69.5509 416.549,68.7175 417.5,68C 431.555,62.7341 445.888,58.2341 460.5,54.5C 460.665,57.5184 460.498,60.5184 460,63.5C 457.391,75.491 454.891,87.491 452.5,99.5C 448.983,98.8774 445.649,98.044 442.5,97C 403.21,134.206 356.543,149.206 302.5,142C 288.778,138.802 275.444,134.469 262.5,129C 243.02,118.76 223.354,108.76 203.5,99C 183.646,89.4319 162.979,86.9319 141.5,91.5 Z"/></g>
<g><path style="opacity:1" fill="#9cbcf3" d="M 98.5,72.5 C 99.552,72.3505 100.552,72.5172 101.5,73C 75.7836,83.11 49.117,88.2767 21.5,88.5C 21.8266,97.6822 21.4933,106.682 20.5,115.5C 19.1716,106.098 19.1716,96.5982 20.5,87C 47.361,86.5795 73.361,81.7461 98.5,72.5 Z"/></g>
<g><path style="opacity:1" fill="#9abffa" d="M 212.5,69.5 C 213.167,69.5 213.833,69.5 214.5,69.5C 214.833,70.8333 215.167,70.8333 215.5,69.5C 219.903,74.5888 225.569,77.0888 232.5,77C 236.225,79.6836 240.059,82.1836 244,84.5C 244.5,84.3333 245,84.1667 245.5,84C 243.321,81.3166 241.321,78.4833 239.5,75.5C 242.773,77.4342 245.773,79.7675 248.5,82.5C 249.736,83.2458 251.07,83.5792 252.5,83.5C 252.931,87.4219 251.931,90.9219 249.5,94C 245.167,94.3333 240.833,94.6667 236.5,95C 237.696,95.6543 237.696,96.1543 236.5,96.5C 235.667,95.5 234.833,94.5 234,93.5C 231.837,94.668 229.837,95.3346 228,95.5C 227.74,93.3825 226.74,91.7158 225,90.5C 222.438,91.8985 222.105,93.5652 224,95.5C 225.84,94.1669 226.34,94.3335 225.5,96C 233.954,104.649 243.954,110.483 255.5,113.5C 255.5,114.5 255.5,115.5 255.5,116.5C 260.572,118.085 265.572,120.085 270.5,122.5C 271.429,123.689 271.762,125.022 271.5,126.5C 273.199,126.473 274.533,125.806 275.5,124.5C 275.5,125.5 275.5,126.5 275.5,127.5C 273.143,127.663 270.81,127.497 268.5,127C 264.63,124.483 260.63,122.15 256.5,120C 255.207,119.51 253.873,119.343 252.5,119.5C 252.5,118.5 252.5,117.5 252.5,116.5C 250.304,116.41 248.137,116.077 246,115.5C 241.051,113.52 236.217,111.353 231.5,109C 229.833,108 228.5,106.667 227.5,105C 225.833,104.667 224.167,104.333 222.5,104C 219.755,101.086 216.421,99.2526 212.5,98.5C 209.015,95.516 205.682,92.3493 202.5,89C 197.746,87.7877 193.412,85.7877 189.5,83C 186.448,79.2259 182.448,77.2259 177.5,77C 179.167,76.6667 180.833,76.3333 182.5,76C 185.009,72.3748 187.843,71.8748 191,74.5C 193.47,72.9728 195.97,72.3062 198.5,72.5C 203.962,73.0491 208.628,75.2158 212.5,79C 220.68,81.833 228.68,85.1663 236.5,89C 237.944,89.7805 239.277,89.6139 240.5,88.5C 237.563,86.1874 234.23,84.8541 230.5,84.5C 230.703,82.6096 230.037,81.1096 228.5,80C 223,77.1572 217.333,74.4905 211.5,72C 211.167,71.6667 210.833,71.3333 210.5,71C 211.416,70.7216 212.082,70.2216 212.5,69.5 Z"/></g>
<g><path style="opacity:1" fill="#82adf8" d="M 176.5,61.5 C 176.586,62.4959 176.252,63.3292 175.5,64C 173.236,64.2362 171.069,64.7362 169,65.5C 168.586,65.0426 168.086,64.7093 167.5,64.5C 167.167,65.1667 166.833,65.8333 166.5,66.5C 163.792,64.5643 160.792,64.0643 157.5,65C 157.833,65.3333 158.167,65.6667 158.5,66C 156.596,69.6687 155.596,73.3354 155.5,77C 157.163,77.2649 158.663,76.7649 160,75.5C 160.692,76.0253 161.192,76.6919 161.5,77.5C 160.209,78.8248 158.876,80.1581 157.5,81.5C 156.459,79.0087 155.626,79.0087 155,81.5C 153.186,80.2404 151.353,80.2404 149.5,81.5C 150.506,82.3957 150.506,83.0623 149.5,83.5C 147.803,82.6364 146.637,81.3031 146,79.5C 145.851,82.2785 145.017,82.7785 143.5,81C 140.167,80.3333 136.833,80.3333 133.5,81C 133.833,81.3333 134.167,81.6667 134.5,82C 133.354,82.6449 132.354,83.4783 131.5,84.5C 125.65,84.7082 124.65,86.5415 128.5,90C 131.678,90.4448 134.845,90.2781 138,89.5C 139.681,89.6083 140.848,90.2749 141.5,91.5C 135.008,92.2737 128.675,93.7737 122.5,96C 96.2563,107.061 68.923,113.727 40.5,116C 33.6536,116.821 26.987,116.654 20.5,115.5C 21.4933,106.682 21.8266,97.6822 21.5,88.5C 49.117,88.2767 75.7836,83.11 101.5,73C 100.552,72.5172 99.552,72.3505 98.5,72.5C 99.5676,71.5655 100.901,71.2322 102.5,71.5C 103.15,71.8039 103.817,72.1373 104.5,72.5C 127.517,62.7756 151.517,59.109 176.5,61.5 Z"/></g>
<g><path style="opacity:1" fill="#849ade" d="M 191.5,125.5 C 186.22,125.486 180.887,125.819 175.5,126.5C 186.101,129.066 196.435,132.399 206.5,136.5C 207.298,136.957 207.631,137.624 207.5,138.5C 203.017,138.88 199.017,137.714 195.5,135C 187.229,133.348 178.896,132.182 170.5,131.5C 170.156,135.64 171.49,138.306 174.5,139.5C 173.975,140.192 173.308,140.692 172.5,141C 181.43,142.79 189.763,146.29 197.5,151.5C 195.473,151.662 193.473,151.495 191.5,151C 187.767,148.248 183.767,147.081 179.5,147.5C 177.449,145.427 174.949,144.427 172,144.5C 169.396,145.278 166.896,146.278 164.5,147.5C 162.462,146.366 160.462,146.366 158.5,147.5C 154.947,147.113 151.614,146.113 148.5,144.5C 147.304,144.846 147.304,145.346 148.5,146C 146.167,147 143.833,148 141.5,149C 142.167,149.333 142.833,149.667 143.5,150C 153.468,149.469 163.468,149.469 173.5,150C 174.598,150.77 174.598,151.603 173.5,152.5C 165.5,151.167 157.5,151.167 149.5,152.5C 145.979,151.629 142.312,150.795 138.5,150C 137.397,148.32 137.73,146.82 139.5,145.5C 141.064,146.186 142.731,146.019 144.5,145C 143.158,142.108 140.825,140.775 137.5,141C 140.904,140.986 143.57,139.653 145.5,137C 145.167,136.667 144.833,136.333 144.5,136C 147.167,134.333 147.167,132.667 144.5,131C 148.95,129.091 153.283,127.091 157.5,125C 148.915,124.172 140.415,124.672 132,126.5C 130.97,126.164 130.47,125.497 130.5,124.5C 146.67,120.508 163.004,119.675 179.5,122C 183.709,122.881 187.709,124.047 191.5,125.5 Z"/></g>
<g><path style="opacity:1" fill="#97a9e7" d="M 207.5,138.5 C 211.453,139.761 215.453,140.928 219.5,142C 224.167,144.333 228.833,146.667 233.5,149C 234.71,150.039 235.71,151.206 236.5,152.5C 233.856,152.84 231.523,152.173 229.5,150.5C 228.914,150.709 228.414,151.043 228,151.5C 225.123,149.602 222.29,147.769 219.5,146C 218.833,145 218.167,144 217.5,143C 211.457,141.938 205.457,140.771 199.5,139.5C 199.38,141.199 199.046,142.865 198.5,144.5C 198.637,146.107 199.304,147.441 200.5,148.5C 206.886,152.693 213.553,156.36 220.5,159.5C 223.319,162.403 226.319,165.07 229.5,167.5C 219.064,161.585 208.397,156.252 197.5,151.5C 189.763,146.29 181.43,142.79 172.5,141C 173.308,140.692 173.975,140.192 174.5,139.5C 171.49,138.306 170.156,135.64 170.5,131.5C 178.896,132.182 187.229,133.348 195.5,135C 199.017,137.714 203.017,138.88 207.5,138.5 Z"/></g>
<g><path style="opacity:1" fill="#7d92db" d="M 130.5,124.5 C 130.47,125.497 130.97,126.164 132,126.5C 140.415,124.672 148.915,124.172 157.5,125C 153.283,127.091 148.95,129.091 144.5,131C 147.167,132.667 147.167,134.333 144.5,136C 144.833,136.333 145.167,136.667 145.5,137C 143.57,139.653 140.904,140.986 137.5,141C 140.825,140.775 143.158,142.108 144.5,145C 142.731,146.019 141.064,146.186 139.5,145.5C 137.73,146.82 137.397,148.32 138.5,150C 142.312,150.795 145.979,151.629 149.5,152.5C 130.939,155.608 112.939,160.774 95.5,168C 72.8174,174.731 49.6507,178.565 26,179.5C 23.6477,179.695 21.6477,179.028 20,177.5C 19.1824,167.922 19.3491,158.422 20.5,149C 36.6296,148.545 52.6296,146.878 68.5,144C 89.2391,137.586 109.906,131.086 130.5,124.5 Z"/></g>
<g><path style="opacity:1" fill="#afbbf0" d="M 236.5,152.5 C 238.199,152.34 239.866,152.506 241.5,153C 244.332,155.538 247.666,157.205 251.5,158C 253.718,160.157 254.885,162.657 255,165.5C 252.833,168.5 250.667,171.5 248.5,174.5C 247.667,174.833 246.833,175.167 246,175.5C 240.954,172.019 235.454,169.352 229.5,167.5C 226.319,165.07 223.319,162.403 220.5,159.5C 213.553,156.36 206.886,152.693 200.5,148.5C 199.304,147.441 198.637,146.107 198.5,144.5C 199.046,142.865 199.38,141.199 199.5,139.5C 205.457,140.771 211.457,141.938 217.5,143C 218.167,144 218.833,145 219.5,146C 222.29,147.769 225.123,149.602 228,151.5C 228.414,151.043 228.914,150.709 229.5,150.5C 231.523,152.173 233.856,152.84 236.5,152.5 Z"/></g>
<g><path style="opacity:1" fill="#7c92db" d="M 173.5,152.5 C 174.598,151.603 174.598,150.77 173.5,150C 163.468,149.469 153.468,149.469 143.5,150C 142.833,149.667 142.167,149.333 141.5,149C 143.833,148 146.167,147 148.5,146C 147.304,145.346 147.304,144.846 148.5,144.5C 151.614,146.113 154.947,147.113 158.5,147.5C 160.462,146.366 162.462,146.366 164.5,147.5C 166.896,146.278 169.396,145.278 172,144.5C 174.949,144.427 177.449,145.427 179.5,147.5C 183.767,147.081 187.767,148.248 191.5,151C 193.473,151.495 195.473,151.662 197.5,151.5C 208.397,156.252 219.064,161.585 229.5,167.5C 235.454,169.352 240.954,172.019 246,175.5C 246.833,175.167 247.667,174.833 248.5,174.5C 250.667,171.5 252.833,168.5 255,165.5C 254.885,162.657 253.718,160.157 251.5,158C 247.666,157.205 244.332,155.538 241.5,153C 239.866,152.506 238.199,152.34 236.5,152.5C 235.71,151.206 234.71,150.039 233.5,149C 228.833,146.667 224.167,144.333 219.5,142C 215.453,140.928 211.453,139.761 207.5,138.5C 207.631,137.624 207.298,136.957 206.5,136.5C 196.435,132.399 186.101,129.066 175.5,126.5C 180.887,125.819 186.22,125.486 191.5,125.5C 200.793,127.765 209.793,130.931 218.5,135C 241.276,146.773 264.276,158.106 287.5,169C 319.84,180.242 351.507,178.575 382.5,164C 396.742,157.383 409.409,148.549 420.5,137.5C 417.008,135.611 416.341,133.278 418.5,130.5C 432.323,125.545 446.323,121.212 460.5,117.5C 460.665,120.85 460.498,124.183 460,127.5C 457.391,139.491 454.891,151.491 452.5,163.5C 448.772,162.29 445.105,161.123 441.5,160C 416.552,184.474 386.552,199.474 351.5,205C 324.668,208.896 298.668,205.896 273.5,196C 250.642,185.737 228.309,174.737 206.5,163C 195.963,157.987 184.963,154.487 173.5,152.5 Z"/></g>
<g><path style="opacity:1" fill="#7475bf" d="M 138.5,185.5 C 149.203,186.659 159.869,187.992 170.5,189.5C 162.493,189.334 154.493,189.5 146.5,190C 142.812,191.182 139.145,192.348 135.5,193.5C 133.261,197.649 131.261,201.982 129.5,206.5C 130.552,206.351 131.552,206.517 132.5,207C 130.581,208.804 130.248,210.804 131.5,213C 130.352,214.726 129.185,214.559 128,212.5C 126.635,213.593 126.301,214.926 127,216.5C 127.333,215.833 127.667,215.167 128,214.5C 129.294,216.962 130.794,219.295 132.5,221.5C 131.738,221.911 130.738,222.077 129.5,222C 131.747,225.214 131.413,228.38 128.5,231.5C 129.207,234.364 130.541,236.864 132.5,239C 132.354,240.727 131.687,240.894 130.5,239.5C 129.276,241.828 129.276,244.161 130.5,246.5C 129.687,247.814 128.687,248.981 127.5,250C 128.167,250.667 128.833,251.333 129.5,252C 128.149,254.125 128.815,255.292 131.5,255.5C 138.568,253.954 145.568,252.288 152.5,250.5C 153.386,249.675 153.719,248.675 153.5,247.5C 162.033,246.35 169.699,243.35 176.5,238.5C 184.199,236.146 190.532,231.812 195.5,225.5C 202.973,220.345 210.307,215.012 217.5,209.5C 217.833,209.5 218.167,209.5 218.5,209.5C 217.19,211.148 215.857,212.814 214.5,214.5C 214.709,215.086 215.043,215.586 215.5,216C 212.317,218.835 208.817,221.335 205,223.5C 204.282,222.549 203.449,222.383 202.5,223C 201.128,224.242 200.128,225.742 199.5,227.5C 196.02,230.146 192.686,232.979 189.5,236C 183.047,238.877 176.714,242.043 170.5,245.5C 169.914,245.291 169.414,244.957 169,244.5C 165.863,247.644 162.029,248.977 157.5,248.5C 157.473,250.199 156.806,251.533 155.5,252.5C 155.607,254.379 155.107,254.712 154,253.5C 151.002,255.081 147.835,256.247 144.5,257C 143.009,258.91 141.509,260.077 140,260.5C 139.275,258.842 138.108,258.342 136.5,259C 137.167,259.667 137.833,260.333 138.5,261C 137.826,262.751 137.493,264.417 137.5,266C 140.135,267.311 142.469,268.978 144.5,271C 143.007,272.156 143.174,272.99 145,273.5C 146.654,275.263 148.487,275.596 150.5,274.5C 151.806,275.912 152.64,277.579 153,279.5C 154.153,277.503 155.653,277.17 157.5,278.5C 157.167,279.167 156.833,279.833 156.5,280.5C 159.671,280.787 161.671,282.454 162.5,285.5C 164.695,286.769 166.861,286.769 169,285.5C 171.075,288.533 173.742,290.867 177,292.5C 179.852,293.313 182.852,293.313 186,292.5C 188.596,294.088 190.929,296.088 193,298.5C 194.483,293.177 195.65,293.177 196.5,298.5C 199.119,298.768 201.619,298.435 204,297.5C 207.619,300.343 210.952,300.01 214,296.5C 212.907,301.085 214.24,302.085 218,299.5C 219.333,300.167 220.333,301.167 221,302.5C 221.667,299.833 222.333,299.833 223,302.5C 224.154,301.257 225.488,300.257 227,299.5C 229.743,303.49 232.076,303.157 234,298.5C 235.905,299.158 237.405,300.325 238.5,302C 240.833,302.667 243.167,302.667 245.5,302C 243.956,301.71 242.623,301.044 241.5,300C 242.907,298.548 244.407,298.715 246,300.5C 247.049,299.483 248.216,299.316 249.5,300C 248.007,301.156 248.174,301.99 250,302.5C 251.748,300.915 253.915,298.915 256.5,296.5C 256.19,298.201 256.69,299.868 258,301.5C 259.925,299.099 262.092,297.932 264.5,298C 263.672,297.085 262.672,296.419 261.5,296C 263.727,295.879 265.56,295.046 267,293.5C 267.333,293.833 267.667,294.167 268,294.5C 268.249,293.376 268.749,292.376 269.5,291.5C 269.554,292.53 269.888,293.697 270.5,295C 272.027,296.368 273.527,296.868 275,296.5C 275.948,294.43 277.448,292.93 279.5,292C 277.109,291.309 277.109,290.309 279.5,289C 281.756,289.615 284.089,289.948 286.5,290C 284.833,289 283.167,288 281.5,287C 281.784,285.044 281.784,282.877 281.5,280.5C 277.673,280.44 277.006,281.607 279.5,284C 277.057,283.914 275.39,282.581 274.5,280C 275.5,279.667 276.5,279.333 277.5,279C 276.62,277.644 276.286,276.144 276.5,274.5C 274.876,274.36 273.71,275.027 273,276.5C 271.605,275.185 270.605,275.519 270,277.5C 269.667,276.833 269.333,276.167 269,275.5C 268.275,277.158 267.108,277.658 265.5,277C 266.641,276.259 266.641,275.425 265.5,274.5C 266.5,273.833 267.5,273.167 268.5,272.5C 267.282,272.891 266.448,272.224 266,270.5C 261.674,272.421 258.007,271.421 255,267.5C 255.263,268.951 255.096,270.284 254.5,271.5C 253.352,269.851 252.019,268.351 250.5,267C 251.956,266.577 252.456,265.744 252,264.5C 250.333,263.5 249,262.167 248,260.5C 247.383,261.449 247.549,262.282 248.5,263C 246.447,263.325 244.447,262.991 242.5,262C 244.405,261.174 244.739,260.007 243.5,258.5C 242.284,259.002 241.117,259.335 240,259.5C 238.176,258.251 238.343,257.085 240.5,256C 239.551,255.383 238.718,255.549 238,256.5C 235.194,254.605 232.86,252.272 231,249.5C 229.207,250.381 228.54,249.714 229,247.5C 230.832,248.858 232.665,249.192 234.5,248.5C 232.539,246.75 231.206,244.583 230.5,242C 231.825,242.148 232.992,241.982 234,241.5C 236.393,244.928 238.893,247.594 241.5,249.5C 244.713,249.722 246.546,251.388 247,254.5C 248.147,253.542 249.147,253.875 250,255.5C 250.249,254.376 250.749,253.376 251.5,252.5C 254.121,254.813 257.121,256.147 260.5,256.5C 262.842,256.225 262.842,255.392 260.5,254C 264.046,254.259 267.379,255.426 270.5,257.5C 271.521,258.002 271.688,258.668 271,259.5C 268.985,258.158 266.818,257.658 264.5,258C 267.07,260.459 270.07,261.459 273.5,261C 274.731,259.033 275.731,259.199 276.5,261.5C 276.291,262.086 275.957,262.586 275.5,263C 278.353,266.443 282.019,267.776 286.5,267C 284.456,266.502 283.122,265.335 282.5,263.5C 283.167,263.5 283.833,263.5 284.5,263.5C 290.145,266.329 296.145,268.496 302.5,270C 315.373,272.604 328.373,274.104 341.5,274.5C 340.564,277.959 338.564,280.793 335.5,283C 295.48,315.881 249.814,327.547 198.5,318C 162.907,309.742 133.407,291.576 110,263.5C 102.906,253.259 96.0732,242.925 89.5,232.5C 66.9118,238.661 43.9118,241.494 20.5,241C 19.5144,231.25 19.181,221.416 19.5,211.5C 33.1989,210.789 46.8656,209.623 60.5,208C 86.4883,200.392 112.488,192.892 138.5,185.5 Z"/></g>
<g><path style="opacity:1" fill="#8587c7" d="M 170.5,189.5 C 176.631,189.359 182.631,190.193 188.5,192C 195.627,195.23 202.96,197.897 210.5,200C 211.056,200.383 211.389,200.883 211.5,201.5C 200.726,197.959 189.892,194.959 179,192.5C 175.444,193.009 171.611,193.509 167.5,194C 166.773,195.399 166.273,196.899 166,198.5C 165.667,198.167 165.333,197.833 165,197.5C 163.174,199.074 161.007,199.907 158.5,200C 159.448,200.483 160.448,200.649 161.5,200.5C 161.66,202.199 161.494,203.866 161,205.5C 160.119,207.946 158.953,210.279 157.5,212.5C 157.846,213.696 158.346,213.696 159,212.5C 159.424,214.515 160.258,216.349 161.5,218C 161.11,220.459 159.776,222.126 157.5,223C 159.698,224.67 160.032,226.67 158.5,229C 161.276,230.779 160.943,231.779 157.5,232C 157.833,232.333 158.167,232.667 158.5,233C 155.98,235.892 155.646,238.726 157.5,241.5C 156.572,242.768 156.405,244.101 157,245.5C 163.847,243.831 170.347,241.498 176.5,238.5C 169.699,243.35 162.033,246.35 153.5,247.5C 153.719,248.675 153.386,249.675 152.5,250.5C 145.568,252.288 138.568,253.954 131.5,255.5C 128.815,255.292 128.149,254.125 129.5,252C 128.833,251.333 128.167,250.667 127.5,250C 128.687,248.981 129.687,247.814 130.5,246.5C 129.276,244.161 129.276,241.828 130.5,239.5C 131.687,240.894 132.354,240.727 132.5,239C 130.541,236.864 129.207,234.364 128.5,231.5C 131.413,228.38 131.747,225.214 129.5,222C 130.738,222.077 131.738,221.911 132.5,221.5C 130.794,219.295 129.294,216.962 128,214.5C 127.667,215.167 127.333,215.833 127,216.5C 126.301,214.926 126.635,213.593 128,212.5C 129.185,214.559 130.352,214.726 131.5,213C 130.248,210.804 130.581,208.804 132.5,207C 131.552,206.517 130.552,206.351 129.5,206.5C 131.261,201.982 133.261,197.649 135.5,193.5C 139.145,192.348 142.812,191.182 146.5,190C 154.493,189.5 162.493,189.334 170.5,189.5 Z"/></g>
<g><path style="opacity:1" fill="#9c9ed5" d="M 211.5,201.5 C 216.912,201.89 219.246,204.556 218.5,209.5C 218.167,209.5 217.833,209.5 217.5,209.5C 217.5,208.167 217.5,206.833 217.5,205.5C 214.439,205.413 211.773,204.413 209.5,202.5C 207.167,203.833 204.833,203.833 202.5,202.5C 199.934,205.14 198.1,204.807 197,201.5C 196.692,202.308 196.192,202.975 195.5,203.5C 192.182,200.641 191.182,201.308 192.5,205.5C 191.354,206.719 190.354,208.052 189.5,209.5C 188.269,208.349 188.269,207.183 189.5,206C 188.725,204.77 187.725,204.437 186.5,205C 187.145,207.307 187.145,209.807 186.5,212.5C 186.977,213.478 187.643,214.311 188.5,215C 185.8,218.765 184.134,223.098 183.5,228C 184.825,227.852 185.992,228.018 187,228.5C 189.69,227.071 192.523,226.071 195.5,225.5C 190.532,231.812 184.199,236.146 176.5,238.5C 170.347,241.498 163.847,243.831 157,245.5C 156.405,244.101 156.572,242.768 157.5,241.5C 155.646,238.726 155.98,235.892 158.5,233C 158.167,232.667 157.833,232.333 157.5,232C 160.943,231.779 161.276,230.779 158.5,229C 160.032,226.67 159.698,224.67 157.5,223C 159.776,222.126 161.11,220.459 161.5,218C 160.258,216.349 159.424,214.515 159,212.5C 158.346,213.696 157.846,213.696 157.5,212.5C 158.953,210.279 160.119,207.946 161,205.5C 161.494,203.866 161.66,202.199 161.5,200.5C 160.448,200.649 159.448,200.483 158.5,200C 161.007,199.907 163.174,199.074 165,197.5C 165.333,197.833 165.667,198.167 166,198.5C 166.273,196.899 166.773,195.399 167.5,194C 171.611,193.509 175.444,193.009 179,192.5C 189.892,194.959 200.726,197.959 211.5,201.5 Z"/></g>
<g><path style="opacity:1" fill="#abaede" d="M 217.5,209.5 C 210.307,215.012 202.973,220.345 195.5,225.5C 192.523,226.071 189.69,227.071 187,228.5C 185.992,228.018 184.825,227.852 183.5,228C 184.134,223.098 185.8,218.765 188.5,215C 187.643,214.311 186.977,213.478 186.5,212.5C 187.145,209.807 187.145,207.307 186.5,205C 187.725,204.437 188.725,204.77 189.5,206C 188.269,207.183 188.269,208.349 189.5,209.5C 190.354,208.052 191.354,206.719 192.5,205.5C 191.182,201.308 192.182,200.641 195.5,203.5C 196.192,202.975 196.692,202.308 197,201.5C 198.1,204.807 199.934,205.14 202.5,202.5C 204.833,203.833 207.167,203.833 209.5,202.5C 211.773,204.413 214.439,205.413 217.5,205.5C 217.5,206.833 217.5,208.167 217.5,209.5 Z"/></g>
<g><path style="opacity:1" fill="#7473bf" d="M 286.5,263.5 C 287.952,262.698 289.618,262.198 291.5,262C 281.79,259.304 272.457,255.804 263.5,251.5C 262.847,250.193 262.18,248.86 261.5,247.5C 262.465,246.086 263.465,245.253 264.5,245C 262.912,242.421 260.578,241.087 257.5,241C 258.328,240.085 259.328,239.419 260.5,239C 259.234,238.691 258.067,238.191 257,237.5C 255.867,239.211 254.367,239.711 252.5,239C 253.772,236.956 253.439,235.122 251.5,233.5C 249.99,237.248 248.823,236.915 248,232.5C 247.667,232.833 247.333,233.167 247,233.5C 245.493,231.992 243.827,230.659 242,229.5C 241.02,227.741 240.353,226.074 240,224.5C 239.667,226.167 239.333,227.833 239,229.5C 238.15,228.576 237.15,228.576 236,229.5C 234.605,229.22 233.438,228.553 232.5,227.5C 233.616,227.598 234.616,227.098 235.5,226C 234.069,225.513 232.735,224.179 231.5,222C 228.167,221.667 224.833,221.333 221.5,221C 220.874,220.25 220.374,219.416 220,218.5C 219.43,221.844 218.264,222.177 216.5,219.5C 213.401,221.291 210.401,223.124 207.5,225C 207.833,225.333 208.167,225.667 208.5,226C 205.412,226.579 202.745,227.913 200.5,230C 203.649,230.776 204.149,232.276 202,234.5C 201.581,233.328 200.915,232.328 200,231.5C 199.097,232.701 197.931,233.535 196.5,234C 197.956,234.423 198.456,235.256 198,236.5C 195.667,237.833 193.333,237.833 191,236.5C 189.504,239.002 187.337,240.669 184.5,241.5C 183.469,242.7 182.635,244.034 182,245.5C 179.091,243.085 176.757,243.751 175,247.5C 174.667,246.833 174.333,246.167 174,245.5C 172.667,246.833 171.333,248.167 170,249.5C 169.667,249.167 169.333,248.833 169,248.5C 167.625,252.002 165.792,252.668 163.5,250.5C 162.808,251.025 162.308,251.692 162,252.5C 160.044,252.216 157.877,252.216 155.5,252.5C 156.806,251.533 157.473,250.199 157.5,248.5C 162.029,248.977 165.863,247.644 169,244.5C 169.414,244.957 169.914,245.291 170.5,245.5C 176.714,242.043 183.047,238.877 189.5,236C 192.686,232.979 196.02,230.146 199.5,227.5C 200.128,225.742 201.128,224.242 202.5,223C 203.449,222.383 204.282,222.549 205,223.5C 208.817,221.335 212.317,218.835 215.5,216C 215.043,215.586 214.709,215.086 214.5,214.5C 215.857,212.814 217.19,211.148 218.5,209.5C 219.246,204.556 216.912,201.89 211.5,201.5C 211.389,200.883 211.056,200.383 210.5,200C 202.96,197.897 195.627,195.23 188.5,192C 182.631,190.193 176.631,189.359 170.5,189.5C 159.869,187.992 149.203,186.659 138.5,185.5C 152.468,184.386 166.468,184.219 180.5,185C 195.947,187.858 210.614,192.858 224.5,200C 249.451,214.975 275.785,226.975 303.5,236C 348.14,243.306 386.807,231.64 419.5,201C 418.38,199.263 417.38,197.429 416.5,195.5C 430.582,189.307 445.249,184.64 460.5,181.5C 460.665,184.85 460.498,188.183 460,191.5C 457.389,203.51 454.889,215.51 452.5,227.5C 448.44,226.945 445.273,224.945 443,221.5C 398.57,263.486 346.404,277.486 286.5,263.5 Z"/></g>
<g><path style="opacity:1" fill="#7374ba" d="M 263.5,251.5 C 256.467,249.556 250.134,246.39 244.5,242C 241.874,241.005 239.207,240.672 236.5,241C 244.702,245.929 252.702,251.096 260.5,256.5C 257.121,256.147 254.121,254.813 251.5,252.5C 250.749,253.376 250.249,254.376 250,255.5C 249.147,253.875 248.147,253.542 247,254.5C 246.546,251.388 244.713,249.722 241.5,249.5C 238.893,247.594 236.393,244.928 234,241.5C 232.992,241.982 231.825,242.148 230.5,242C 231.206,244.583 232.539,246.75 234.5,248.5C 232.665,249.192 230.832,248.858 229,247.5C 228.54,249.714 229.207,250.381 231,249.5C 232.86,252.272 235.194,254.605 238,256.5C 238.718,255.549 239.551,255.383 240.5,256C 238.343,257.085 238.176,258.251 240,259.5C 241.117,259.335 242.284,259.002 243.5,258.5C 244.739,260.007 244.405,261.174 242.5,262C 244.447,262.991 246.447,263.325 248.5,263C 247.549,262.282 247.383,261.449 248,260.5C 249,262.167 250.333,263.5 252,264.5C 252.456,265.744 251.956,266.577 250.5,267C 252.019,268.351 253.352,269.851 254.5,271.5C 255.096,270.284 255.263,268.951 255,267.5C 258.007,271.421 261.674,272.421 266,270.5C 266.448,272.224 267.282,272.891 268.5,272.5C 267.5,273.167 266.5,273.833 265.5,274.5C 266.641,275.425 266.641,276.259 265.5,277C 267.108,277.658 268.275,277.158 269,275.5C 269.333,276.167 269.667,276.833 270,277.5C 270.605,275.519 271.605,275.185 273,276.5C 273.71,275.027 274.876,274.36 276.5,274.5C 276.286,276.144 276.62,277.644 277.5,279C 276.5,279.333 275.5,279.667 274.5,280C 275.39,282.581 277.057,283.914 279.5,284C 277.006,281.607 277.673,280.44 281.5,280.5C 281.784,282.877 281.784,285.044 281.5,287C 283.167,288 284.833,289 286.5,290C 284.089,289.948 281.756,289.615 279.5,289C 277.109,290.309 277.109,291.309 279.5,292C 277.448,292.93 275.948,294.43 275,296.5C 273.527,296.868 272.027,296.368 270.5,295C 269.888,293.697 269.554,292.53 269.5,291.5C 268.749,292.376 268.249,293.376 268,294.5C 267.667,294.167 267.333,293.833 267,293.5C 265.56,295.046 263.727,295.879 261.5,296C 262.672,296.419 263.672,297.085 264.5,298C 262.092,297.932 259.925,299.099 258,301.5C 256.69,299.868 256.19,298.201 256.5,296.5C 253.915,298.915 251.748,300.915 250,302.5C 248.174,301.99 248.007,301.156 249.5,300C 248.216,299.316 247.049,299.483 246,300.5C 244.407,298.715 242.907,298.548 241.5,300C 242.623,301.044 243.956,301.71 245.5,302C 243.167,302.667 240.833,302.667 238.5,302C 237.405,300.325 235.905,299.158 234,298.5C 232.076,303.157 229.743,303.49 227,299.5C 225.488,300.257 224.154,301.257 223,302.5C 222.333,299.833 221.667,299.833 221,302.5C 220.333,301.167 219.333,300.167 218,299.5C 214.24,302.085 212.907,301.085 214,296.5C 210.952,300.01 207.619,300.343 204,297.5C 201.619,298.435 199.119,298.768 196.5,298.5C 195.65,293.177 194.483,293.177 193,298.5C 190.929,296.088 188.596,294.088 186,292.5C 182.852,293.313 179.852,293.313 177,292.5C 173.742,290.867 171.075,288.533 169,285.5C 166.861,286.769 164.695,286.769 162.5,285.5C 161.671,282.454 159.671,280.787 156.5,280.5C 156.833,279.833 157.167,279.167 157.5,278.5C 155.653,277.17 154.153,277.503 153,279.5C 152.64,277.579 151.806,275.912 150.5,274.5C 148.487,275.596 146.654,275.263 145,273.5C 143.174,272.99 143.007,272.156 144.5,271C 142.469,268.978 140.135,267.311 137.5,266C 137.493,264.417 137.826,262.751 138.5,261C 137.833,260.333 137.167,259.667 136.5,259C 138.108,258.342 139.275,258.842 140,260.5C 141.509,260.077 143.009,258.91 144.5,257C 147.835,256.247 151.002,255.081 154,253.5C 155.107,254.712 155.607,254.379 155.5,252.5C 157.877,252.216 160.044,252.216 162,252.5C 162.308,251.692 162.808,251.025 163.5,250.5C 165.792,252.668 167.625,252.002 169,248.5C 169.333,248.833 169.667,249.167 170,249.5C 171.333,248.167 172.667,246.833 174,245.5C 174.333,246.167 174.667,246.833 175,247.5C 176.757,243.751 179.091,243.085 182,245.5C 182.635,244.034 183.469,242.7 184.5,241.5C 187.337,240.669 189.504,239.002 191,236.5C 193.333,237.833 195.667,237.833 198,236.5C 198.456,235.256 197.956,234.423 196.5,234C 197.931,233.535 199.097,232.701 200,231.5C 200.915,232.328 201.581,233.328 202,234.5C 204.149,232.276 203.649,230.776 200.5,230C 202.745,227.913 205.412,226.579 208.5,226C 208.167,225.667 207.833,225.333 207.5,225C 210.401,223.124 213.401,221.291 216.5,219.5C 218.264,222.177 219.43,221.844 220,218.5C 220.374,219.416 220.874,220.25 221.5,221C 224.833,221.333 228.167,221.667 231.5,222C 232.735,224.179 234.069,225.513 235.5,226C 234.616,227.098 233.616,227.598 232.5,227.5C 233.438,228.553 234.605,229.22 236,229.5C 237.15,228.576 238.15,228.576 239,229.5C 239.333,227.833 239.667,226.167 240,224.5C 240.353,226.074 241.02,227.741 242,229.5C 243.827,230.659 245.493,231.992 247,233.5C 247.333,233.167 247.667,232.833 248,232.5C 248.823,236.915 249.99,237.248 251.5,233.5C 253.439,235.122 253.772,236.956 252.5,239C 254.367,239.711 255.867,239.211 257,237.5C 258.067,238.191 259.234,238.691 260.5,239C 259.328,239.419 258.328,240.085 257.5,241C 260.578,241.087 262.912,242.421 264.5,245C 263.465,245.253 262.465,246.086 261.5,247.5C 262.18,248.86 262.847,250.193 263.5,251.5 Z"/></g>
<g><path style="opacity:0.541" fill="#8684bf" d="M 263.5,251.5 C 272.457,255.804 281.79,259.304 291.5,262C 289.618,262.198 287.952,262.698 286.5,263.5C 285.833,263.5 285.167,263.5 284.5,263.5C 283.22,262.069 281.553,261.402 279.5,261.5C 280.29,262.401 281.29,263.068 282.5,263.5C 283.122,265.335 284.456,266.502 286.5,267C 282.019,267.776 278.353,266.443 275.5,263C 275.957,262.586 276.291,262.086 276.5,261.5C 275.731,259.199 274.731,259.033 273.5,261C 270.07,261.459 267.07,260.459 264.5,258C 266.818,257.658 268.985,258.158 271,259.5C 271.688,258.668 271.521,258.002 270.5,257.5C 267.379,255.426 264.046,254.259 260.5,254C 262.842,255.392 262.842,256.225 260.5,256.5C 252.702,251.096 244.702,245.929 236.5,241C 239.207,240.672 241.874,241.005 244.5,242C 250.134,246.39 256.467,249.556 263.5,251.5 Z M 279.5,261.5 C 281.553,261.402 283.22,262.069 284.5,263.5C 283.833,263.5 283.167,263.5 282.5,263.5C 281.29,263.068 280.29,262.401 279.5,261.5 Z"/></g>
</svg>
