<?xml version="1.0" encoding="UTF-8"?>
<!DOCTYPE svg PUBLIC "-//W3C//DTD SVG 1.1//EN" "http://www.w3.org/Graphics/SVG/1.1/DTD/svg11.dtd">
<svg xmlns="http://www.w3.org/2000/svg" version="1.1" width="646px" height="448px" style="shape-rendering:geometricPrecision; text-rendering:geometricPrecision; image-rendering:optimizeQuality; fill-rule:evenodd; clip-rule:evenodd" xmlns:xlink="http://www.w3.org/1999/xlink">
<g><path style="opacity:1" fill="#a2c4fb" d="M 350.5,19.5 C 353.916,19.5275 356.916,20.5275 359.5,22.5C 347.832,20.0693 336.165,19.236 324.5,20C 324.434,22.1086 324.101,24.2753 323.5,26.5C 324.5,27.3333 325.5,28.1667 326.5,29C 325.137,30.9449 324.303,33.1116 324,35.5C 323.08,35.9302 322.247,36.2635 321.5,36.5C 322.5,37.1667 323.5,37.8333 324.5,38.5C 324.333,38.8333 324.167,39.1667 324,39.5C 323,39.8333 322,40.1667 321,40.5C 319.936,43.2373 318.436,45.7373 316.5,48C 316.759,49.2613 317.426,50.2613 318.5,51C 316.122,51.9745 316.456,52.6411 319.5,53C 318.167,53.6667 318.167,54.3333 319.5,55C 318.529,56.2036 317.529,56.7036 316.5,56.5C 317.5,57.3333 318.5,58.1667 319.5,59C 317.941,59.9799 316.274,60.8133 314.5,61.5C 314.846,62.6956 315.346,62.6956 316,61.5C 316.483,62.448 316.649,63.448 316.5,64.5C 317.5,64.5 318.5,64.5 319.5,64.5C 319.34,66.1992 319.506,67.8659 320,69.5C 325.306,74.6484 330.306,79.9817 335,85.5C 335.931,89.4123 335.097,92.9123 332.5,96C 328.167,96.3333 323.833,96.6667 319.5,97C 320.696,97.6543 320.696,98.1543 319.5,98.5C 318.667,97.5 317.833,96.5 317,95.5C 314.837,96.668 312.837,97.3346 311,97.5C 309.987,92.5207 308.154,91.854 305.5,95.5C 311.99,101.76 319.99,107.593 329.5,113C 332.699,113.401 335.699,114.234 338.5,115.5C 338.5,116.5 338.5,117.5 338.5,118.5C 343.572,120.085 348.572,122.085 353.5,124.5C 354.429,125.689 354.762,127.022 354.5,128.5C 356.199,128.473 357.533,127.806 358.5,126.5C 358.5,127.5 358.5,128.5 358.5,129.5C 356.143,129.663 353.81,129.497 351.5,129C 347.63,126.483 343.63,124.15 339.5,122C 338.207,121.51 336.873,121.343 335.5,121.5C 335.5,120.5 335.5,119.5 335.5,118.5C 327.282,115.382 319.949,110.715 313.5,104.5C 307.228,100.892 301.228,96.8923 295.5,92.5C 294.614,91.675 294.281,90.675 294.5,89.5C 293.167,89.5 291.833,89.5 290.5,89.5C 289.64,87.1845 289.14,84.8511 289,82.5C 293.335,83.8987 297.835,84.5653 302.5,84.5C 302.343,85.8734 302.51,87.2068 303,88.5C 303.333,87.8333 303.667,87.1667 304,86.5C 310.354,87.8745 316.187,90.3745 321.5,94C 327.335,95.9561 331.335,94.1227 333.5,88.5C 331.703,86.8689 330.536,84.8689 330,82.5C 327.172,79.3283 323.672,77.4949 319.5,77C 314.65,73.3218 309.65,69.8218 304.5,66.5C 304.167,66.5 303.833,66.5 303.5,66.5C 302.247,61.4011 299.247,57.5678 294.5,55C 294.957,54.586 295.291,54.086 295.5,53.5C 293.135,52.9149 291.135,51.7482 289.5,50C 290.727,48.4126 290.394,47.0793 288.5,46C 289.715,43.9045 290.549,44.0712 291,46.5C 292.852,44.7703 292.686,43.6036 290.5,43C 291.167,42.6667 291.833,42.3333 292.5,42C 292.943,40.4815 292.276,39.3148 290.5,38.5C 293.118,36.8004 293.784,34.6337 292.5,32C 293.5,31 294.5,30 295.5,29C 294.572,28.6121 293.905,27.9454 293.5,27C 295.003,25.0786 295.669,22.912 295.5,20.5C 304.227,19.2604 313.06,17.9271 322,16.5C 331.351,17.9425 340.851,18.9425 350.5,19.5 Z"/></g>
<g><path style="opacity:1" fill="#b0cdfd" d="M 359.5,22.5 C 362.846,23.003 366.179,23.6697 369.5,24.5C 370.522,25.354 371.355,26.354 372,27.5C 372.827,41.3396 372.661,55.0062 371.5,68.5C 371.815,54.7841 371.482,41.1174 370.5,27.5C 365.869,26.8229 361.369,26.8229 357,27.5C 356.316,28.7839 356.483,29.9505 357.5,31C 355.824,32.1769 354.491,33.6769 353.5,35.5C 354.641,36.4255 354.641,37.2588 353.5,38C 354.167,38.3333 354.833,38.6667 355.5,39C 351.455,40.7809 350.622,42.9476 353,45.5C 352.637,47.7158 352.804,49.8824 353.5,52C 353.333,52.5 353.167,53 353,53.5C 352.333,52.1667 351.667,52.1667 351,53.5C 350.79,54.8029 350.957,56.1362 351.5,57.5C 351.182,58.6473 350.516,59.4806 349.5,60C 352.095,61.3463 352.762,63.1797 351.5,65.5C 351.818,66.6473 352.484,67.4806 353.5,68C 352.667,68.8333 351.833,69.6667 351,70.5C 350.275,68.842 349.108,68.342 347.5,69C 348.833,71 350.167,73 351.5,75C 350.371,77.1678 348.871,77.6678 347,76.5C 344.742,79.2858 345.242,79.9525 348.5,78.5C 351.465,80.627 351.131,81.7937 347.5,82C 348.727,83.5874 348.394,84.9207 346.5,86C 350.574,87.5398 350.907,88.8732 347.5,90C 348.552,91.1192 349.719,91.6192 351,91.5C 351.536,93.5672 351.036,95.4006 349.5,97C 351.926,98.945 352.759,101.445 352,104.5C 351.395,102.519 350.395,102.185 349,103.5C 349.379,105.075 349.212,106.575 348.5,108C 350.113,108.089 351.28,107.255 352,105.5C 352.891,109.372 352.391,113.038 350.5,116.5C 352.252,119.192 354.585,121.192 357.5,122.5C 358.182,121.757 358.849,121.091 359.5,120.5C 359.483,122.565 359.15,124.565 358.5,126.5C 357.533,127.806 356.199,128.473 354.5,128.5C 354.762,127.022 354.429,125.689 353.5,124.5C 348.572,122.085 343.572,120.085 338.5,118.5C 338.5,117.5 338.5,116.5 338.5,115.5C 335.699,114.234 332.699,113.401 329.5,113C 319.99,107.593 311.99,101.76 305.5,95.5C 308.154,91.854 309.987,92.5207 311,97.5C 312.837,97.3346 314.837,96.668 317,95.5C 317.833,96.5 318.667,97.5 319.5,98.5C 320.696,98.1543 320.696,97.6543 319.5,97C 323.833,96.6667 328.167,96.3333 332.5,96C 335.097,92.9123 335.931,89.4123 335,85.5C 330.306,79.9817 325.306,74.6484 320,69.5C 319.506,67.8659 319.34,66.1992 319.5,64.5C 318.5,64.5 317.5,64.5 316.5,64.5C 316.649,63.448 316.483,62.448 316,61.5C 315.346,62.6956 314.846,62.6956 314.5,61.5C 316.274,60.8133 317.941,59.9799 319.5,59C 318.5,58.1667 317.5,57.3333 316.5,56.5C 317.529,56.7036 318.529,56.2036 319.5,55C 318.167,54.3333 318.167,53.6667 319.5,53C 316.456,52.6411 316.122,51.9745 318.5,51C 317.426,50.2613 316.759,49.2613 316.5,48C 318.436,45.7373 319.936,43.2373 321,40.5C 322,40.1667 323,39.8333 324,39.5C 324.167,39.1667 324.333,38.8333 324.5,38.5C 323.5,37.8333 322.5,37.1667 321.5,36.5C 322.247,36.2635 323.08,35.9302 324,35.5C 324.303,33.1116 325.137,30.9449 326.5,29C 325.5,28.1667 324.5,27.3333 323.5,26.5C 324.101,24.2753 324.434,22.1086 324.5,20C 336.165,19.236 347.832,20.0693 359.5,22.5 Z"/></g>
<g><path style="opacity:1" fill="#b8d3fe" d="M 371.5,68.5 C 370.134,82.167 367.3,95.5003 363,108.5C 363.124,113.045 361.957,117.045 359.5,120.5C 358.849,121.091 358.182,121.757 357.5,122.5C 354.585,121.192 352.252,119.192 350.5,116.5C 352.391,113.038 352.891,109.372 352,105.5C 351.28,107.255 350.113,108.089 348.5,108C 349.212,106.575 349.379,105.075 349,103.5C 350.395,102.185 351.395,102.519 352,104.5C 352.759,101.445 351.926,98.945 349.5,97C 351.036,95.4006 351.536,93.5672 351,91.5C 349.719,91.6192 348.552,91.1192 347.5,90C 350.907,88.8732 350.574,87.5398 346.5,86C 348.394,84.9207 348.727,83.5874 347.5,82C 351.131,81.7937 351.465,80.627 348.5,78.5C 345.242,79.9525 344.742,79.2858 347,76.5C 348.871,77.6678 350.371,77.1678 351.5,75C 350.167,73 348.833,71 347.5,69C 349.108,68.342 350.275,68.842 351,70.5C 351.833,69.6667 352.667,68.8333 353.5,68C 352.484,67.4806 351.818,66.6473 351.5,65.5C 352.762,63.1797 352.095,61.3463 349.5,60C 350.516,59.4806 351.182,58.6473 351.5,57.5C 350.957,56.1362 350.79,54.8029 351,53.5C 351.667,52.1667 352.333,52.1667 353,53.5C 353.167,53 353.333,52.5 353.5,52C 352.804,49.8824 352.637,47.7158 353,45.5C 350.622,42.9476 351.455,40.7809 355.5,39C 354.833,38.6667 354.167,38.3333 353.5,38C 354.641,37.2588 354.641,36.4255 353.5,35.5C 354.491,33.6769 355.824,32.1769 357.5,31C 356.483,29.9505 356.316,28.7839 357,27.5C 361.369,26.8229 365.869,26.8229 370.5,27.5C 371.482,41.1174 371.815,54.7841 371.5,68.5 Z"/></g>
<g><path style="opacity:1" fill="#8fb6f8" d="M 300.5,73.5 C 300.5,74.1667 300.833,74.5 301.5,74.5C 301.833,74.5 302.167,74.5 302.5,74.5C 302.833,75.8333 303.167,75.8333 303.5,74.5C 304.167,74.5 304.5,74.8333 304.5,75.5C 304.5,76.1667 304.833,76.5 305.5,76.5C 306.735,76.2786 307.735,75.6119 308.5,74.5C 309.646,75.1449 310.646,75.9783 311.5,77C 314.971,77.6868 315.305,76.6868 312.5,74C 309.888,72.9572 307.555,71.4572 305.5,69.5C 304.614,68.675 304.281,67.675 304.5,66.5C 309.65,69.8218 314.65,73.3218 319.5,77C 323.672,77.4949 327.172,79.3283 330,82.5C 330.536,84.8689 331.703,86.8689 333.5,88.5C 331.335,94.1227 327.335,95.9561 321.5,94C 316.187,90.3745 310.354,87.8745 304,86.5C 303.667,87.1667 303.333,87.8333 303,88.5C 302.51,87.2068 302.343,85.8734 302.5,84.5C 297.835,84.5653 293.335,83.8987 289,82.5C 289.14,84.8511 289.64,87.1845 290.5,89.5C 291.833,89.5 293.167,89.5 294.5,89.5C 294.281,90.675 294.614,91.675 295.5,92.5C 301.228,96.8923 307.228,100.892 313.5,104.5C 319.949,110.715 327.282,115.382 335.5,118.5C 330.202,118.014 325.202,116.514 320.5,114C 311.114,109.103 302.114,103.769 293.5,98C 291.833,97.6667 290.167,97.3333 288.5,97C 282.471,93.1004 276.137,89.7671 269.5,87C 266.937,85.9207 264.271,85.4207 261.5,85.5C 261.649,84.448 261.483,83.448 261,82.5C 251.089,76.6098 252.089,72.6098 264,70.5C 264.333,70.8333 264.667,71.1667 265,71.5C 266.934,69.5812 266.767,68.0812 264.5,67C 265.167,66.6667 265.833,66.3333 266.5,66C 259.328,63.9921 251.994,63.1588 244.5,63.5C 236.139,63.5565 227.805,64.0565 219.5,65C 196.176,71.9929 172.843,78.9929 149.5,86C 134.614,88.7096 119.614,90.2096 104.5,90.5C 104.804,99.5839 104.471,108.584 103.5,117.5C 102.342,108.343 102.176,99.0092 103,89.5C 103.5,89 104,88.5 104.5,88C 121.038,88.1331 137.371,86.4665 153.5,83C 173.417,76.4725 193.417,70.1391 213.5,64C 243.625,57.2812 272.625,60.4478 300.5,73.5 Z"/></g>
<g><path style="opacity:1" fill="#82adf4" d="M 441.5,143.5 C 429.627,141.808 429.96,140.308 442.5,139C 441.584,138.626 440.75,138.126 440,137.5C 439.55,135.481 438.717,133.648 437.5,132C 435.236,132.698 433.403,132.198 432,130.5C 430.318,131.865 430.151,133.365 431.5,135C 430.667,135.833 429.833,136.667 429,137.5C 429.351,135.114 429.185,132.781 428.5,130.5C 425.467,131.927 422.634,131.594 420,129.5C 418.846,130.743 417.512,131.743 416,132.5C 415.383,131.551 415.549,130.718 416.5,130C 415.584,129.626 414.75,129.126 414,128.5C 411.466,132.128 408.466,132.461 405,129.5C 402.532,130.104 400.532,131.438 399,133.5C 397.388,133.048 396.388,131.715 396,129.5C 395.667,130.167 395.333,130.833 395,131.5C 393.992,131.018 392.825,130.852 391.5,131C 391.833,130.667 392.167,130.333 392.5,130C 391.5,129.667 390.5,129.333 389.5,129C 390.696,128.346 390.696,127.846 389.5,127.5C 388.719,128.729 388.219,130.062 388,131.5C 387.333,128.833 386.667,128.833 386,131.5C 385.667,130.833 385.333,130.167 385,129.5C 382.821,131.637 380.321,131.971 377.5,130.5C 379.27,129.18 379.603,127.68 378.5,126C 377.369,126.108 376.369,126.608 375.5,127.5C 373.109,126.809 373.109,125.809 375.5,124.5C 374.218,121.867 372.884,121.867 371.5,124.5C 370.363,121.072 368.029,119.572 364.5,120C 365.126,120.75 365.626,121.584 366,122.5C 367.281,121.353 367.614,121.687 367,123.5C 365.119,125.825 363.452,125.825 362,123.5C 360.826,124.544 359.659,125.544 358.5,126.5C 359.15,124.565 359.483,122.565 359.5,120.5C 361.957,117.045 363.124,113.045 363,108.5C 367.3,95.5003 370.134,82.167 371.5,68.5C 372.661,55.0062 372.827,41.3396 372,27.5C 371.355,26.354 370.522,25.354 369.5,24.5C 366.179,23.6697 362.846,23.003 359.5,22.5C 356.916,20.5275 353.916,19.5275 350.5,19.5C 349.737,18.7321 348.737,18.2321 347.5,18C 337.398,16.3661 327.231,15.1995 317,14.5C 307.18,15.2128 297.347,15.7128 287.5,16C 280.341,18.3425 273.008,20.5092 265.5,22.5C 263.756,25.9125 261.089,28.2458 257.5,29.5C 256.614,30.325 256.281,31.325 256.5,32.5C 254.61,32.2965 253.11,32.9632 252,34.5C 250.878,36.4205 250.044,38.4205 249.5,40.5C 250.552,40.3505 251.552,40.5172 252.5,41C 253.833,41.6667 253.833,42.3333 252.5,43C 256.183,43.9765 256.849,45.6432 254.5,48C 258.186,48.5588 261.853,49.2255 265.5,50C 275.997,54.7489 286.33,59.7489 296.5,65C 298.866,65.4396 301.199,65.9396 303.5,66.5C 303.833,66.5 304.167,66.5 304.5,66.5C 304.281,67.675 304.614,68.675 305.5,69.5C 307.555,71.4572 309.888,72.9572 312.5,74C 315.305,76.6868 314.971,77.6868 311.5,77C 310.646,75.9783 309.646,75.1449 308.5,74.5C 307.735,75.6119 306.735,76.2786 305.5,76.5C 304.833,76.5 304.5,76.1667 304.5,75.5C 304.5,74.8333 304.167,74.5 303.5,74.5C 303.167,74.5 302.833,74.5 302.5,74.5C 302.167,73.1667 301.833,73.1667 301.5,74.5C 300.833,74.5 300.5,74.1667 300.5,73.5C 272.524,55.9691 242.024,49.9691 209,55.5C 206.016,54.1668 205.849,52.3334 208.5,50C 259.037,7.48781 315.37,-2.17886 377.5,21C 415.22,38.7199 442.887,66.3866 460.5,104C 461.833,104.667 463.167,104.667 464.5,104C 479.168,97.319 492.168,88.319 503.5,77C 502.924,75.2856 501.757,74.1189 500,73.5C 499.51,72.2068 499.343,70.8734 499.5,69.5C 514.082,64.8548 528.749,60.5215 543.5,56.5C 543.665,59.8499 543.498,63.1832 543,66.5C 540.028,78.0572 537.528,89.7238 535.5,101.5C 531.865,101.259 528.532,100.425 525.5,99C 501.868,121.984 473.868,136.817 441.5,143.5 Z"/></g>
<g><path style="opacity:1" fill="#92b9f9" d="M 350.5,19.5 C 340.851,18.9425 331.351,17.9425 322,16.5C 313.06,17.9271 304.227,19.2604 295.5,20.5C 295.669,22.912 295.003,25.0786 293.5,27C 293.905,27.9454 294.572,28.6121 295.5,29C 294.5,30 293.5,31 292.5,32C 293.784,34.6337 293.118,36.8004 290.5,38.5C 292.276,39.3148 292.943,40.4815 292.5,42C 291.833,42.3333 291.167,42.6667 290.5,43C 292.686,43.6036 292.852,44.7703 291,46.5C 290.549,44.0712 289.715,43.9045 288.5,46C 290.394,47.0793 290.727,48.4126 289.5,50C 291.135,51.7482 293.135,52.9149 295.5,53.5C 295.291,54.086 294.957,54.586 294.5,55C 299.247,57.5678 302.247,61.4011 303.5,66.5C 301.199,65.9396 298.866,65.4396 296.5,65C 286.33,59.7489 275.997,54.7489 265.5,50C 261.853,49.2255 258.186,48.5588 254.5,48C 256.849,45.6432 256.183,43.9765 252.5,43C 253.833,42.3333 253.833,41.6667 252.5,41C 251.552,40.5172 250.552,40.3505 249.5,40.5C 250.044,38.4205 250.878,36.4205 252,34.5C 253.11,32.9632 254.61,32.2965 256.5,32.5C 256.281,31.325 256.614,30.325 257.5,29.5C 261.089,28.2458 263.756,25.9125 265.5,22.5C 273.008,20.5092 280.341,18.3425 287.5,16C 297.347,15.7128 307.18,15.2128 317,14.5C 327.231,15.1995 337.398,16.3661 347.5,18C 348.737,18.2321 349.737,18.7321 350.5,19.5 Z"/></g>
<g><path style="opacity:1" fill="#81adf8" d="M 335.5,118.5 C 335.5,119.5 335.5,120.5 335.5,121.5C 336.873,121.343 338.207,121.51 339.5,122C 343.63,124.15 347.63,126.483 351.5,129C 353.81,129.497 356.143,129.663 358.5,129.5C 358.5,128.5 358.5,127.5 358.5,126.5C 359.659,125.544 360.826,124.544 362,123.5C 363.452,125.825 365.119,125.825 367,123.5C 367.614,121.687 367.281,121.353 366,122.5C 365.626,121.584 365.126,120.75 364.5,120C 368.029,119.572 370.363,121.072 371.5,124.5C 372.884,121.867 374.218,121.867 375.5,124.5C 373.109,125.809 373.109,126.809 375.5,127.5C 376.369,126.608 377.369,126.108 378.5,126C 379.603,127.68 379.27,129.18 377.5,130.5C 380.321,131.971 382.821,131.637 385,129.5C 385.333,130.167 385.667,130.833 386,131.5C 386.667,128.833 387.333,128.833 388,131.5C 388.219,130.062 388.719,128.729 389.5,127.5C 390.696,127.846 390.696,128.346 389.5,129C 390.5,129.333 391.5,129.667 392.5,130C 392.167,130.333 391.833,130.667 391.5,131C 392.825,130.852 393.992,131.018 395,131.5C 395.333,130.833 395.667,130.167 396,129.5C 396.388,131.715 397.388,133.048 399,133.5C 400.532,131.438 402.532,130.104 405,129.5C 408.466,132.461 411.466,132.128 414,128.5C 414.75,129.126 415.584,129.626 416.5,130C 415.549,130.718 415.383,131.551 416,132.5C 417.512,131.743 418.846,130.743 420,129.5C 422.634,131.594 425.467,131.927 428.5,130.5C 429.185,132.781 429.351,135.114 429,137.5C 429.833,136.667 430.667,135.833 431.5,135C 430.151,133.365 430.318,131.865 432,130.5C 433.403,132.198 435.236,132.698 437.5,132C 438.717,133.648 439.55,135.481 440,137.5C 440.75,138.126 441.584,138.626 442.5,139C 429.96,140.308 429.627,141.808 441.5,143.5C 419.404,147.81 397.404,147.31 375.5,142C 362.846,138.173 350.513,133.506 338.5,128C 316.722,115.446 294.055,104.446 270.5,95C 252.508,90.3593 234.508,90.3593 216.5,95C 196.402,102.108 176.068,108.441 155.5,114C 138.156,117.615 120.823,118.781 103.5,117.5C 104.471,108.584 104.804,99.5839 104.5,90.5C 119.614,90.2096 134.614,88.7096 149.5,86C 172.843,78.9929 196.176,71.9929 219.5,65C 227.805,64.0565 236.139,63.5565 244.5,63.5C 251.994,63.1588 259.328,63.9921 266.5,66C 265.833,66.3333 265.167,66.6667 264.5,67C 266.767,68.0812 266.934,69.5812 265,71.5C 264.667,71.1667 264.333,70.8333 264,70.5C 252.089,72.6098 251.089,76.6098 261,82.5C 261.483,83.448 261.649,84.448 261.5,85.5C 264.271,85.4207 266.937,85.9207 269.5,87C 276.137,89.7671 282.471,93.1004 288.5,97C 290.167,97.3333 291.833,97.6667 293.5,98C 302.114,103.769 311.114,109.103 320.5,114C 325.202,116.514 330.202,118.014 335.5,118.5 Z"/></g>
<g><path style="opacity:1" fill="#7d92db" d="M 539.5,119.5 C 541.665,119.116 543.332,119.783 544.5,121.5C 541.787,136.305 538.454,150.972 534.5,165.5C 533.914,165.709 533.414,166.043 533,166.5C 530.664,163.751 527.831,162.251 524.5,162C 487.766,196.58 444.1,211.914 393.5,208C 374.985,204.955 357.319,199.288 340.5,191C 321.539,181.402 302.539,171.735 283.5,162C 262.082,152.82 240.082,151.153 217.5,157C 195.914,164.861 173.914,171.527 151.5,177C 135.637,179.972 119.637,181.472 103.5,181.5C 102.225,171.291 102.225,161.124 103.5,151C 121.032,150.626 138.365,148.626 155.5,145C 170.595,140.286 185.595,135.286 200.5,130C 215.226,125.778 230.226,123.278 245.5,122.5C 262.139,123.26 278.139,126.76 293.5,133C 315.26,143.714 336.927,154.714 358.5,166C 412.353,187.415 460.686,178.748 503.5,140C 501.773,138.611 500.439,136.944 499.5,135C 499.645,134.228 499.978,133.561 500.5,133C 513.657,128.637 526.657,124.137 539.5,119.5 Z"/></g>
<g><path style="opacity:1" fill="#97a9e7" d="M 319.5,154.5 C 316.856,154.84 314.523,154.173 312.5,152.5C 311.914,152.709 311.414,153.043 311,153.5C 308.123,151.602 305.29,149.769 302.5,148C 301.833,147 301.167,146 300.5,145C 294.457,143.938 288.457,142.771 282.5,141.5C 282.38,143.199 282.046,144.865 281.5,146.5C 281.637,148.107 282.304,149.441 283.5,150.5C 289.886,154.693 296.553,158.36 303.5,161.5C 306.319,164.403 309.319,167.07 312.5,169.5C 297.265,161.671 281.932,153.837 266.5,146C 262.998,143.711 259.331,142.711 255.5,143C 256.308,142.692 256.975,142.192 257.5,141.5C 254.49,140.306 253.156,137.64 253.5,133.5C 261.896,134.182 270.229,135.348 278.5,137C 279.7,138.031 281.034,138.865 282.5,139.5C 294.728,140.885 306.062,144.719 316.5,151C 317.71,152.039 318.71,153.206 319.5,154.5 Z"/></g>
<g><path style="opacity:1" fill="#aebaef" d="M 319.5,154.5 C 324.256,156.873 329.256,158.706 334.5,160C 336.718,162.157 337.885,164.657 338,167.5C 335.833,170.5 333.667,173.5 331.5,176.5C 328.81,177.602 326.143,177.436 323.5,176C 319.647,173.909 315.98,171.743 312.5,169.5C 309.319,167.07 306.319,164.403 303.5,161.5C 296.553,158.36 289.886,154.693 283.5,150.5C 282.304,149.441 281.637,148.107 281.5,146.5C 282.046,144.865 282.38,143.199 282.5,141.5C 288.457,142.771 294.457,143.938 300.5,145C 301.167,146 301.833,147 302.5,148C 305.29,149.769 308.123,151.602 311,153.5C 311.414,153.043 311.914,152.709 312.5,152.5C 314.523,154.173 316.856,154.84 319.5,154.5 Z"/></g>
<g><path style="opacity:1" fill="#7373bf" d="M 221.5,187.5 C 230.622,189.012 239.955,189.845 249.5,190C 257.087,190.887 264.42,192.387 271.5,194.5C 262.872,193.316 254.206,192.316 245.5,191.5C 237.727,192.04 230.06,193.04 222.5,194.5C 221.292,195.234 219.959,195.567 218.5,195.5C 218.863,197.911 217.863,199.411 215.5,200C 212.128,199.385 209.128,199.718 206.5,201C 207.022,201.561 207.355,202.228 207.5,203C 205.399,205.202 204.065,207.869 203.5,211C 203.905,211.945 204.572,212.612 205.5,213C 203.789,214.133 203.289,215.633 204,217.5C 205.908,214.668 206.741,215.001 206.5,218.5C 205.448,218.351 204.448,218.517 203.5,219C 204.517,220.049 204.684,221.216 204,222.5C 203.08,222.93 202.247,223.264 201.5,223.5C 203.2,227.887 205.2,231.72 207.5,235C 205.131,235.536 203.131,236.703 201.5,238.5C 202.5,239.333 203.5,240.167 204.5,241C 203.167,241.667 203.167,242.333 204.5,243C 205.833,243.333 207.167,243.667 208.5,244C 207.333,244.5 206.5,245.333 206,246.5C 204.603,243.693 202.769,243.193 200.5,245C 201.833,246.333 201.833,247.667 200.5,249C 201.623,250.044 202.956,250.71 204.5,251C 203.643,251.689 202.977,252.522 202.5,253.5C 203.58,256.121 205.247,258.288 207.5,260C 207.167,260.333 206.833,260.667 206.5,261C 207.5,261.5 208.5,262 209.5,262.5C 219.005,259.446 228.671,256.779 238.5,254.5C 238.607,256.379 238.107,256.712 237,255.5C 234.002,257.081 230.835,258.247 227.5,259C 226.009,260.91 224.509,262.077 223,262.5C 222.275,260.842 221.108,260.342 219.5,261C 220.167,261.667 220.833,262.333 221.5,263C 220.826,264.751 220.493,266.417 220.5,268C 223.135,269.311 225.469,270.978 227.5,273C 226.007,274.156 226.174,274.99 228,275.5C 229.654,277.263 231.487,277.596 233.5,276.5C 234.806,277.912 235.64,279.579 236,281.5C 237.153,279.503 238.653,279.17 240.5,280.5C 240.167,281.167 239.833,281.833 239.5,282.5C 242.671,282.787 244.671,284.454 245.5,287.5C 247.695,288.769 249.861,288.769 252,287.5C 254.075,290.533 256.742,292.867 260,294.5C 262.852,295.313 265.852,295.313 269,294.5C 271.596,296.088 273.929,298.088 276,300.5C 277.483,295.177 278.65,295.177 279.5,300.5C 282.119,300.768 284.619,300.435 287,299.5C 290.619,302.343 293.952,302.01 297,298.5C 295.907,303.085 297.24,304.085 301,301.5C 302.333,302.167 303.333,303.167 304,304.5C 304.667,301.833 305.333,301.833 306,304.5C 307.154,303.257 308.488,302.257 310,301.5C 312.743,305.49 315.076,305.157 317,300.5C 318.905,301.158 320.405,302.325 321.5,304C 323.833,304.667 326.167,304.667 328.5,304C 326.956,303.71 325.623,303.044 324.5,302C 325.907,300.548 327.407,300.715 329,302.5C 330.049,301.483 331.216,301.316 332.5,302C 331.007,303.156 331.174,303.99 333,304.5C 334.748,302.915 336.915,300.915 339.5,298.5C 339.19,300.201 339.69,301.868 341,303.5C 342.925,301.099 345.092,299.932 347.5,300C 346.672,299.085 345.672,298.419 344.5,298C 346.727,297.879 348.56,297.046 350,295.5C 350.333,295.833 350.667,296.167 351,296.5C 351.249,295.376 351.749,294.376 352.5,293.5C 352.554,294.53 352.888,295.697 353.5,297C 355.027,298.368 356.527,298.868 358,298.5C 358.948,296.43 360.448,294.93 362.5,294C 360.109,293.309 360.109,292.309 362.5,291C 364.756,291.615 367.089,291.948 369.5,292C 367.833,291 366.167,290 364.5,289C 364.784,287.044 364.784,284.877 364.5,282.5C 360.673,282.44 360.006,283.607 362.5,286C 360.057,285.914 358.39,284.581 357.5,282C 358.5,281.667 359.5,281.333 360.5,281C 359.62,279.644 359.286,278.144 359.5,276.5C 357.876,276.36 356.71,277.027 356,278.5C 354.605,277.185 353.605,277.519 353,279.5C 352.667,278.833 352.333,278.167 352,277.5C 351.275,279.158 350.108,279.658 348.5,279C 349.641,278.259 349.641,277.425 348.5,276.5C 349.5,275.833 350.5,275.167 351.5,274.5C 350.282,274.891 349.448,274.224 349,272.5C 344.674,274.421 341.007,273.421 338,269.5C 338.263,270.951 338.096,272.284 337.5,273.5C 336.352,271.851 335.019,270.351 333.5,269C 334.956,268.577 335.456,267.744 335,266.5C 333.333,265.5 332,264.167 331,262.5C 330.383,263.449 330.549,264.282 331.5,265C 329.447,265.325 327.447,264.991 325.5,264C 327.405,263.174 327.739,262.007 326.5,260.5C 325.284,261.002 324.117,261.335 323,261.5C 321.176,260.251 321.343,259.085 323.5,258C 322.551,257.383 321.718,257.549 321,258.5C 318.194,256.605 315.86,254.272 314,251.5C 312.207,252.381 311.54,251.714 312,249.5C 313.832,250.858 315.665,251.192 317.5,250.5C 315.539,248.75 314.206,246.583 313.5,244C 317.074,242.888 319.574,244.388 321,248.5C 321.333,248.167 321.667,247.833 322,247.5C 322.923,248.759 323.757,250.092 324.5,251.5C 327.713,251.722 329.546,253.388 330,256.5C 331.147,255.542 332.147,255.875 333,257.5C 333.249,256.376 333.749,255.376 334.5,254.5C 337.474,257.628 341.14,259.128 345.5,259C 352.462,262.76 359.629,265.927 367,268.5C 368.011,267.663 369.178,267.33 370.5,267.5C 387.809,272.327 405.476,275.16 423.5,276C 424.517,277.049 424.684,278.216 424,279.5C 383.955,316.537 336.788,330.037 282.5,320C 233.241,308.056 196.907,279.723 173.5,235C 162.268,237.206 150.935,239.206 139.5,241C 130.33,241.834 121.164,242.667 112,243.5C 109.167,243.167 106.333,242.833 103.5,242.5C 102.176,232.637 102.176,222.803 103.5,213C 120.001,212.972 136.335,211.305 152.5,208C 168.188,203.915 183.522,198.915 198.5,193C 206.05,190.696 213.717,188.862 221.5,187.5 Z"/></g>
<g><path style="opacity:1" fill="#797bbf" d="M 222.5,194.5 C 223.263,195.268 224.263,195.768 225.5,196C 223.956,196.29 222.623,196.956 221.5,198C 223.878,198.511 226.212,199.178 228.5,200C 227.139,201.584 226.472,203.418 226.5,205.5C 224.856,205.714 223.356,205.38 222,204.5C 221.5,205 221,205.5 220.5,206C 222.032,206.7 223.032,207.866 223.5,209.5C 223.994,212.55 223.327,215.55 221.5,218.5C 224.106,221.649 224.106,224.816 221.5,228C 221.833,229 222.167,230 222.5,231C 221.833,231.667 221.167,232.333 220.5,233C 220.777,234.892 221.777,236.225 223.5,237C 223.48,238.715 222.814,240.548 221.5,242.5C 221.977,243.478 222.643,244.311 223.5,245C 220.612,245.681 219.945,247.181 221.5,249.5C 221.24,251.187 220.573,252.687 219.5,254C 226.223,254.615 232.39,253.115 238,249.5C 242.333,248.705 246.5,247.538 250.5,246C 253.367,243.734 256.367,241.901 259.5,240.5C 267.199,238.146 273.532,233.812 278.5,227.5C 285.973,222.345 293.307,217.012 300.5,211.5C 300.833,211.5 301.167,211.5 301.5,211.5C 300.19,213.148 298.857,214.814 297.5,216.5C 297.709,217.086 298.043,217.586 298.5,218C 295.317,220.835 291.817,223.335 288,225.5C 287.282,224.549 286.449,224.383 285.5,225C 284.128,226.242 283.128,227.742 282.5,229.5C 279.02,232.146 275.686,234.979 272.5,238C 266.047,240.877 259.714,244.043 253.5,247.5C 252.914,247.291 252.414,246.957 252,246.5C 248.863,249.644 245.029,250.977 240.5,250.5C 240.473,252.199 239.806,253.533 238.5,254.5C 228.671,256.779 219.005,259.446 209.5,262.5C 208.5,262 207.5,261.5 206.5,261C 206.833,260.667 207.167,260.333 207.5,260C 205.247,258.288 203.58,256.121 202.5,253.5C 202.977,252.522 203.643,251.689 204.5,251C 202.956,250.71 201.623,250.044 200.5,249C 201.833,247.667 201.833,246.333 200.5,245C 202.769,243.193 204.603,243.693 206,246.5C 206.5,245.333 207.333,244.5 208.5,244C 207.167,243.667 205.833,243.333 204.5,243C 203.167,242.333 203.167,241.667 204.5,241C 203.5,240.167 202.5,239.333 201.5,238.5C 203.131,236.703 205.131,235.536 207.5,235C 205.2,231.72 203.2,227.887 201.5,223.5C 202.247,223.264 203.08,222.93 204,222.5C 204.684,221.216 204.517,220.049 203.5,219C 204.448,218.517 205.448,218.351 206.5,218.5C 206.741,215.001 205.908,214.668 204,217.5C 203.289,215.633 203.789,214.133 205.5,213C 204.572,212.612 203.905,211.945 203.5,211C 204.065,207.869 205.399,205.202 207.5,203C 207.355,202.228 207.022,201.561 206.5,201C 209.128,199.718 212.128,199.385 215.5,200C 217.863,199.411 218.863,197.911 218.5,195.5C 219.959,195.567 221.292,195.234 222.5,194.5 Z"/></g>
<g><path style="opacity:1" fill="#8789c8" d="M 271.5,194.5 C 278.706,197.265 286.04,199.765 293.5,202C 294.056,202.383 294.389,202.883 294.5,203.5C 283.726,199.959 272.892,196.959 262,194.5C 258.444,195.009 254.611,195.509 250.5,196C 249.773,197.399 249.273,198.899 249,200.5C 248.667,200.167 248.333,199.833 248,199.5C 246.174,201.074 244.007,201.907 241.5,202C 242.448,202.483 243.448,202.649 244.5,202.5C 244.66,204.199 244.494,205.866 244,207.5C 243.119,209.946 241.953,212.279 240.5,214.5C 240.846,215.696 241.346,215.696 242,214.5C 242.424,216.515 243.258,218.349 244.5,220C 244.11,222.459 242.776,224.126 240.5,225C 242.698,226.67 243.032,228.67 241.5,231C 244.276,232.779 243.943,233.779 240.5,234C 240.833,234.333 241.167,234.667 241.5,235C 238.98,237.892 238.646,240.726 240.5,243.5C 239.572,244.768 239.405,246.101 240,247.5C 246.847,245.831 253.347,243.498 259.5,240.5C 256.367,241.901 253.367,243.734 250.5,246C 246.5,247.538 242.333,248.705 238,249.5C 232.39,253.115 226.223,254.615 219.5,254C 220.573,252.687 221.24,251.187 221.5,249.5C 219.945,247.181 220.612,245.681 223.5,245C 222.643,244.311 221.977,243.478 221.5,242.5C 222.814,240.548 223.48,238.715 223.5,237C 221.777,236.225 220.777,234.892 220.5,233C 221.167,232.333 221.833,231.667 222.5,231C 222.167,230 221.833,229 221.5,228C 224.106,224.816 224.106,221.649 221.5,218.5C 223.327,215.55 223.994,212.55 223.5,209.5C 223.032,207.866 222.032,206.7 220.5,206C 221,205.5 221.5,205 222,204.5C 223.356,205.38 224.856,205.714 226.5,205.5C 226.472,203.418 227.139,201.584 228.5,200C 226.212,199.178 223.878,198.511 221.5,198C 222.623,196.956 223.956,196.29 225.5,196C 224.263,195.768 223.263,195.268 222.5,194.5C 230.06,193.04 237.727,192.04 245.5,191.5C 254.206,192.316 262.872,193.316 271.5,194.5 Z"/></g>
<g><path style="opacity:1" fill="#9c9ed5" d="M 294.5,203.5 C 299.912,203.89 302.246,206.556 301.5,211.5C 301.167,211.5 300.833,211.5 300.5,211.5C 300.5,210.167 300.5,208.833 300.5,207.5C 297.439,207.413 294.773,206.413 292.5,204.5C 290.167,205.833 287.833,205.833 285.5,204.5C 282.934,207.14 281.1,206.807 280,203.5C 279.692,204.308 279.192,204.975 278.5,205.5C 275.182,202.641 274.182,203.308 275.5,207.5C 274.354,208.719 273.354,210.052 272.5,211.5C 271.269,210.349 271.269,209.183 272.5,208C 271.725,206.77 270.725,206.437 269.5,207C 270.145,209.307 270.145,211.807 269.5,214.5C 269.977,215.478 270.643,216.311 271.5,217C 268.8,220.765 267.134,225.098 266.5,230C 267.825,229.852 268.992,230.018 270,230.5C 272.69,229.071 275.523,228.071 278.5,227.5C 273.532,233.812 267.199,238.146 259.5,240.5C 253.347,243.498 246.847,245.831 240,247.5C 239.405,246.101 239.572,244.768 240.5,243.5C 238.646,240.726 238.98,237.892 241.5,235C 241.167,234.667 240.833,234.333 240.5,234C 243.943,233.779 244.276,232.779 241.5,231C 243.032,228.67 242.698,226.67 240.5,225C 242.776,224.126 244.11,222.459 244.5,220C 243.258,218.349 242.424,216.515 242,214.5C 241.346,215.696 240.846,215.696 240.5,214.5C 241.953,212.279 243.119,209.946 244,207.5C 244.494,205.866 244.66,204.199 244.5,202.5C 243.448,202.649 242.448,202.483 241.5,202C 244.007,201.907 246.174,201.074 248,199.5C 248.333,199.833 248.667,200.167 249,200.5C 249.273,198.899 249.773,197.399 250.5,196C 254.611,195.509 258.444,195.009 262,194.5C 272.892,196.959 283.726,199.959 294.5,203.5 Z"/></g>
<g><path style="opacity:1" fill="#abaede" d="M 300.5,211.5 C 293.307,217.012 285.973,222.345 278.5,227.5C 275.523,228.071 272.69,229.071 270,230.5C 268.992,230.018 267.825,229.852 266.5,230C 267.134,225.098 268.8,220.765 271.5,217C 270.643,216.311 269.977,215.478 269.5,214.5C 270.145,211.807 270.145,209.307 269.5,207C 270.725,206.437 271.725,206.77 272.5,208C 271.269,209.183 271.269,210.349 272.5,211.5C 273.354,210.052 274.354,208.719 275.5,207.5C 274.182,203.308 275.182,202.641 278.5,205.5C 279.192,204.975 279.692,204.308 280,203.5C 281.1,206.807 282.934,207.14 285.5,204.5C 287.833,205.833 290.167,205.833 292.5,204.5C 294.773,206.413 297.439,207.413 300.5,207.5C 300.5,208.833 300.5,210.167 300.5,211.5 Z"/></g>
<g><path style="opacity:1" fill="#7473c0" d="M 417.5,271.5 C 417.082,270.778 416.416,270.278 415.5,270C 417.167,269.667 418.833,269.333 420.5,269C 409.838,268.255 399.172,267.589 388.5,267C 383.666,266.476 379.666,264.476 376.5,261C 373.57,260.394 370.737,259.56 368,258.5C 367.667,258.833 367.333,259.167 367,259.5C 365.748,257.999 364.748,256.332 364,254.5C 363.667,255.167 363.333,255.833 363,256.5C 362.171,251.66 360.504,251.327 358,255.5C 355.287,253.762 353.287,251.428 352,248.5C 351.5,249.667 350.667,250.5 349.5,251C 350.5,251.333 351.5,251.667 352.5,252C 350.888,252.72 349.388,252.554 348,251.5C 347.667,252.167 347.333,252.833 347,253.5C 343.677,250.224 343.843,248.057 347.5,247C 345.912,244.421 343.578,243.087 340.5,243C 341.328,242.085 342.328,241.419 343.5,241C 342.234,240.691 341.067,240.191 340,239.5C 338.867,241.211 337.367,241.711 335.5,241C 336.772,238.956 336.439,237.122 334.5,235.5C 332.99,239.248 331.823,238.915 331,234.5C 330.667,234.833 330.333,235.167 330,235.5C 328.493,233.992 326.827,232.659 325,231.5C 324.02,229.741 323.353,228.074 323,226.5C 322.667,228.167 322.333,229.833 322,231.5C 321.15,230.576 320.15,230.576 319,231.5C 317.605,231.22 316.438,230.553 315.5,229.5C 316.616,229.598 317.616,229.098 318.5,228C 317.069,227.513 315.735,226.179 314.5,224C 311.167,223.667 307.833,223.333 304.5,223C 303.874,222.25 303.374,221.416 303,220.5C 302.43,223.844 301.264,224.177 299.5,221.5C 296.401,223.291 293.401,225.124 290.5,227C 290.833,227.333 291.167,227.667 291.5,228C 288.412,228.579 285.745,229.913 283.5,232C 286.649,232.776 287.149,234.276 285,236.5C 284.581,235.328 283.915,234.328 283,233.5C 282.097,234.701 280.931,235.535 279.5,236C 280.956,236.423 281.456,237.256 281,238.5C 278.667,239.833 276.333,239.833 274,238.5C 272.504,241.002 270.337,242.669 267.5,243.5C 266.469,244.7 265.635,246.034 265,247.5C 262.091,245.085 259.757,245.751 258,249.5C 257.667,248.833 257.333,248.167 257,247.5C 255.667,248.833 254.333,250.167 253,251.5C 252.667,251.167 252.333,250.833 252,250.5C 250.625,254.002 248.792,254.668 246.5,252.5C 245.808,253.025 245.308,253.692 245,254.5C 243.044,254.216 240.877,254.216 238.5,254.5C 239.806,253.533 240.473,252.199 240.5,250.5C 245.029,250.977 248.863,249.644 252,246.5C 252.414,246.957 252.914,247.291 253.5,247.5C 259.714,244.043 266.047,240.877 272.5,238C 275.686,234.979 279.02,232.146 282.5,229.5C 283.128,227.742 284.128,226.242 285.5,225C 286.449,224.383 287.282,224.549 288,225.5C 291.817,223.335 295.317,220.835 298.5,218C 298.043,217.586 297.709,217.086 297.5,216.5C 298.857,214.814 300.19,213.148 301.5,211.5C 302.246,206.556 299.912,203.89 294.5,203.5C 294.389,202.883 294.056,202.383 293.5,202C 286.04,199.765 278.706,197.265 271.5,194.5C 264.42,192.387 257.087,190.887 249.5,190C 239.955,189.845 230.622,189.012 221.5,187.5C 250.21,182.863 277.543,187.03 303.5,200C 325.495,211.831 347.828,222.831 370.5,233C 420.332,247.971 464.332,237.971 502.5,203C 502.07,201.566 501.236,200.399 500,199.5C 499.51,198.207 499.343,196.873 499.5,195.5C 513.781,191.461 527.948,187.128 542,182.5C 543.301,183.098 544.135,184.098 544.5,185.5C 541.477,200.194 538.477,214.861 535.5,229.5C 534.448,229.649 533.448,229.483 532.5,229C 530.324,227.323 528.324,225.489 526.5,223.5C 495.927,252.281 459.593,268.281 417.5,271.5 Z"/></g>
<g><path style="opacity:1" fill="#7374ba" d="M 417.5,271.5 C 401.582,271.276 385.915,269.276 370.5,265.5C 369.833,265.667 369.167,265.833 368.5,266C 369.416,266.278 370.082,266.778 370.5,267.5C 369.178,267.33 368.011,267.663 367,268.5C 359.629,265.927 352.462,262.76 345.5,259C 341.14,259.128 337.474,257.628 334.5,254.5C 333.749,255.376 333.249,256.376 333,257.5C 332.147,255.875 331.147,255.542 330,256.5C 329.546,253.388 327.713,251.722 324.5,251.5C 323.757,250.092 322.923,248.759 322,247.5C 321.667,247.833 321.333,248.167 321,248.5C 319.574,244.388 317.074,242.888 313.5,244C 314.206,246.583 315.539,248.75 317.5,250.5C 315.665,251.192 313.832,250.858 312,249.5C 311.54,251.714 312.207,252.381 314,251.5C 315.86,254.272 318.194,256.605 321,258.5C 321.718,257.549 322.551,257.383 323.5,258C 321.343,259.085 321.176,260.251 323,261.5C 324.117,261.335 325.284,261.002 326.5,260.5C 327.739,262.007 327.405,263.174 325.5,264C 327.447,264.991 329.447,265.325 331.5,265C 330.549,264.282 330.383,263.449 331,262.5C 332,264.167 333.333,265.5 335,266.5C 335.456,267.744 334.956,268.577 333.5,269C 335.019,270.351 336.352,271.851 337.5,273.5C 338.096,272.284 338.263,270.951 338,269.5C 341.007,273.421 344.674,274.421 349,272.5C 349.448,274.224 350.282,274.891 351.5,274.5C 350.5,275.167 349.5,275.833 348.5,276.5C 349.641,277.425 349.641,278.259 348.5,279C 350.108,279.658 351.275,279.158 352,277.5C 352.333,278.167 352.667,278.833 353,279.5C 353.605,277.519 354.605,277.185 356,278.5C 356.71,277.027 357.876,276.36 359.5,276.5C 359.286,278.144 359.62,279.644 360.5,281C 359.5,281.333 358.5,281.667 357.5,282C 358.39,284.581 360.057,285.914 362.5,286C 360.006,283.607 360.673,282.44 364.5,282.5C 364.784,284.877 364.784,287.044 364.5,289C 366.167,290 367.833,291 369.5,292C 367.089,291.948 364.756,291.615 362.5,291C 360.109,292.309 360.109,293.309 362.5,294C 360.448,294.93 358.948,296.43 358,298.5C 356.527,298.868 355.027,298.368 353.5,297C 352.888,295.697 352.554,294.53 352.5,293.5C 351.749,294.376 351.249,295.376 351,296.5C 350.667,296.167 350.333,295.833 350,295.5C 348.56,297.046 346.727,297.879 344.5,298C 345.672,298.419 346.672,299.085 347.5,300C 345.092,299.932 342.925,301.099 341,303.5C 339.69,301.868 339.19,300.201 339.5,298.5C 336.915,300.915 334.748,302.915 333,304.5C 331.174,303.99 331.007,303.156 332.5,302C 331.216,301.316 330.049,301.483 329,302.5C 327.407,300.715 325.907,300.548 324.5,302C 325.623,303.044 326.956,303.71 328.5,304C 326.167,304.667 323.833,304.667 321.5,304C 320.405,302.325 318.905,301.158 317,300.5C 315.076,305.157 312.743,305.49 310,301.5C 308.488,302.257 307.154,303.257 306,304.5C 305.333,301.833 304.667,301.833 304,304.5C 303.333,303.167 302.333,302.167 301,301.5C 297.24,304.085 295.907,303.085 297,298.5C 293.952,302.01 290.619,302.343 287,299.5C 284.619,300.435 282.119,300.768 279.5,300.5C 278.65,295.177 277.483,295.177 276,300.5C 273.929,298.088 271.596,296.088 269,294.5C 265.852,295.313 262.852,295.313 260,294.5C 256.742,292.867 254.075,290.533 252,287.5C 249.861,288.769 247.695,288.769 245.5,287.5C 244.671,284.454 242.671,282.787 239.5,282.5C 239.833,281.833 240.167,281.167 240.5,280.5C 238.653,279.17 237.153,279.503 236,281.5C 235.64,279.579 234.806,277.912 233.5,276.5C 231.487,277.596 229.654,277.263 228,275.5C 226.174,274.99 226.007,274.156 227.5,273C 225.469,270.978 223.135,269.311 220.5,268C 220.493,266.417 220.826,264.751 221.5,263C 220.833,262.333 220.167,261.667 219.5,261C 221.108,260.342 222.275,260.842 223,262.5C 224.509,262.077 226.009,260.91 227.5,259C 230.835,258.247 234.002,257.081 237,255.5C 238.107,256.712 238.607,256.379 238.5,254.5C 240.877,254.216 243.044,254.216 245,254.5C 245.308,253.692 245.808,253.025 246.5,252.5C 248.792,254.668 250.625,254.002 252,250.5C 252.333,250.833 252.667,251.167 253,251.5C 254.333,250.167 255.667,248.833 257,247.5C 257.333,248.167 257.667,248.833 258,249.5C 259.757,245.751 262.091,245.085 265,247.5C 265.635,246.034 266.469,244.7 267.5,243.5C 270.337,242.669 272.504,241.002 274,238.5C 276.333,239.833 278.667,239.833 281,238.5C 281.456,237.256 280.956,236.423 279.5,236C 280.931,235.535 282.097,234.701 283,233.5C 283.915,234.328 284.581,235.328 285,236.5C 287.149,234.276 286.649,232.776 283.5,232C 285.745,229.913 288.412,228.579 291.5,228C 291.167,227.667 290.833,227.333 290.5,227C 293.401,225.124 296.401,223.291 299.5,221.5C 301.264,224.177 302.43,223.844 303,220.5C 303.374,221.416 303.874,222.25 304.5,223C 307.833,223.333 311.167,223.667 314.5,224C 315.735,226.179 317.069,227.513 318.5,228C 317.616,229.098 316.616,229.598 315.5,229.5C 316.438,230.553 317.605,231.22 319,231.5C 320.15,230.576 321.15,230.576 322,231.5C 322.333,229.833 322.667,228.167 323,226.5C 323.353,228.074 324.02,229.741 325,231.5C 326.827,232.659 328.493,233.992 330,235.5C 330.333,235.167 330.667,234.833 331,234.5C 331.823,238.915 332.99,239.248 334.5,235.5C 336.439,237.122 336.772,238.956 335.5,241C 337.367,241.711 338.867,241.211 340,239.5C 341.067,240.191 342.234,240.691 343.5,241C 342.328,241.419 341.328,242.085 340.5,243C 343.578,243.087 345.912,244.421 347.5,247C 343.843,248.057 343.677,250.224 347,253.5C 347.333,252.833 347.667,252.167 348,251.5C 349.388,252.554 350.888,252.72 352.5,252C 351.5,251.667 350.5,251.333 349.5,251C 350.667,250.5 351.5,249.667 352,248.5C 353.287,251.428 355.287,253.762 358,255.5C 360.504,251.327 362.171,251.66 363,256.5C 363.333,255.833 363.667,255.167 364,254.5C 364.748,256.332 365.748,257.999 367,259.5C 367.333,259.167 367.667,258.833 368,258.5C 370.737,259.56 373.57,260.394 376.5,261C 379.666,264.476 383.666,266.476 388.5,267C 399.172,267.589 409.838,268.255 420.5,269C 418.833,269.333 417.167,269.667 415.5,270C 416.416,270.278 417.082,270.778 417.5,271.5 Z"/></g>
<g><path style="opacity:1" fill="#7674c7" d="M 495.5,377.5 C 514.346,377.85 525.846,387.184 530,405.5C 531.038,423.267 523.205,435.1 506.5,441C 476.241,442.737 463.407,428.571 468,398.5C 473.487,386.524 482.653,379.524 495.5,377.5 Z M 493.5,393.5 C 505.866,391.876 512.532,397.209 513.5,409.5C 513.939,417.407 510.606,422.907 503.5,426C 493.647,428.507 487.147,425.007 484,415.5C 482.307,408.149 483.807,401.649 488.5,396C 490.315,395.243 491.981,394.41 493.5,393.5 Z"/></g>
<g><path style="opacity:1" fill="#7879c7" d="M 345.5,378.5 C 358.837,378.333 372.171,378.5 385.5,379C 386.833,383.333 386.833,387.667 385.5,392C 377.507,392.5 369.507,392.666 361.5,392.5C 361.211,396.106 361.544,399.606 362.5,403C 368.083,403.191 373.583,403.691 379,404.5C 379.499,408.486 379.666,412.486 379.5,416.5C 373.477,416.502 367.477,416.835 361.5,417.5C 361.666,425.174 361.5,432.841 361,440.5C 355.667,441.833 350.333,441.833 345,440.5C 344.179,419.76 344.346,399.094 345.5,378.5 Z"/></g>
<g><path style="opacity:1" fill="#7371c6" d="M 7.5,378.5 C 23.1702,378.333 38.8369,378.5 54.5,379C 55.8333,383.333 55.8333,387.667 54.5,392C 49.5111,392.499 44.5111,392.666 39.5,392.5C 39.6666,408.503 39.4999,424.503 39,440.5C 34.2523,441.635 29.419,441.802 24.5,441C 23.6747,425.241 23.1747,409.407 23,393.5C 18.2512,392.695 13.4179,392.195 8.5,392C 7.237,387.492 6.90366,382.992 7.5,378.5 Z"/></g>
<g><path style="opacity:1" fill="#7772c5" d="M 551.5,378.5 C 556.844,378.334 562.177,378.501 567.5,379C 568,379.5 568.5,380 569,380.5C 571.296,393.234 573.963,405.901 577,418.5C 580.251,405.583 583.251,392.583 586,379.5C 591.75,378.359 597.584,378.193 603.5,379C 605.044,381.999 606.211,385.166 607,388.5C 609.149,398.874 611.482,409.207 614,419.5C 616.326,406.046 619.159,392.713 622.5,379.5C 627.802,378.337 633.136,378.171 638.5,379C 639.059,379.725 639.392,380.558 639.5,381.5C 634.626,400.914 629.459,420.248 624,439.5C 623.5,440 623,440.5 622.5,441C 616.584,441.807 610.75,441.641 605,440.5C 602.046,428.734 598.713,417.067 595,405.5C 591.719,417.073 588.719,428.739 586,440.5C 579.916,441.642 573.749,441.809 567.5,441C 561.899,420.838 556.233,400.671 550.5,380.5C 550.863,379.817 551.196,379.15 551.5,378.5 Z"/></g>
<g><path style="opacity:1" fill="#7a77c5" d="M 178.5,377.5 C 189.158,376.359 197.658,380.026 204,388.5C 207.353,394.842 205.519,398.175 198.5,398.5C 195.525,397.861 192.525,397.361 189.5,397C 187.463,394.719 185.13,392.885 182.5,391.5C 176.141,392.744 175.141,395.577 179.5,400C 185.612,403.116 191.946,405.783 198.5,408C 206.159,413.787 208.325,421.287 205,430.5C 202.5,434.333 199.333,437.5 195.5,440C 186.388,442.216 177.388,441.882 168.5,439C 152.908,424.572 155.241,419.239 175.5,423C 178.954,427.391 183.287,428.558 188.5,426.5C 188.799,424.396 188.466,422.396 187.5,420.5C 180.531,417.35 173.531,414.183 166.5,411C 159.403,404.55 157.57,396.717 161,387.5C 165.51,381.629 171.343,378.295 178.5,377.5 Z"/></g>
<g><path style="opacity:1" fill="#7a75c7" d="M 231.5,378.5 C 236.762,378.195 241.928,378.529 247,379.5C 247.169,387.188 247.669,394.855 248.5,402.5C 254.328,395.166 259.994,387.666 265.5,380C 271.637,378.231 277.803,378.064 284,379.5C 284.667,380.5 284.667,381.5 284,382.5C 276.558,391.099 269.724,400.099 263.5,409.5C 269.693,418.877 276.527,427.877 284,436.5C 285.368,437.993 285.535,439.493 284.5,441C 278.056,441.915 271.723,441.581 265.5,440C 259.994,432.334 254.328,424.834 248.5,417.5C 247.669,425.145 247.169,432.812 247,440.5C 242,441.833 237,441.833 232,440.5C 231.822,420.457 231.322,400.457 230.5,380.5C 230.863,379.817 231.196,379.15 231.5,378.5 Z"/></g>
<g><path style="opacity:1" fill="#7874c3" d="M 97.5,378.5 C 103.758,378.19 109.924,378.524 116,379.5C 124.015,399.866 131.182,420.532 137.5,441.5C 131.794,441.829 126.128,441.495 120.5,440.5C 119.875,437.373 118.875,434.373 117.5,431.5C 110.197,430.503 102.863,430.169 95.5,430.5C 95.0458,434.366 93.7125,437.866 91.5,441C 86.5,441.667 81.5,441.667 76.5,441C 75.9781,440.439 75.6448,439.772 75.5,439C 83.0973,418.912 90.4306,398.746 97.5,378.5 Z M 105.5,399.5 C 108.588,404.406 110.922,409.74 112.5,415.5C 112.182,416.647 111.516,417.481 110.5,418C 107.5,418.667 104.5,418.667 101.5,418C 100.978,417.439 100.645,416.772 100.5,416C 102.711,410.654 104.378,405.154 105.5,399.5 Z"/></g>
<g><path style="opacity:1" fill="#7979c8" d="M 410.5,378.5 C 415.762,378.195 420.928,378.529 426,379.5C 426.333,395.167 426.667,410.833 427,426.5C 432.751,427.31 438.584,427.81 444.5,428C 446.701,431.986 447.035,436.152 445.5,440.5C 433.852,441.499 422.186,441.832 410.5,441.5C 410.5,420.5 410.5,399.5 410.5,378.5 Z"/></g>
</svg>
